{"glyphs":{"0":{"ha":553,"x_min":18,"x_max":535,"o":"m 18 467 l 18 543 q 48 823 18 717 q 136 975 78 928 q 277 1023 194 1023 q 417 975 359 1023 q 505 823 475 928 q 535 543 535 717 l 535 467 q 505 188 535 293 q 417 35 475 82 q 277 -13 359 -13 q 136 35 194 -13 q 48 188 78 82 q 18 467 18 293 m 226 807 l 226 210 q 240 162 226 178 q 277 145 254 145 q 313 162 299 145 q 327 210 327 178 l 327 807 q 313 855 327 838 q 277 871 299 871 q 240 855 254 871 q 226 807 226 838 z "},"1":{"ha":316,"x_min":6,"x_max":290,"o":"m 6 852 l 6 947 l 145 1010 l 290 1010 l 290 0 l 101 0 l 101 852 l 6 852 z "},"2":{"ha":485,"x_min":10,"x_max":472,"o":"m 467 158 l 467 0 l 18 0 l 18 120 l 221 567 q 265 679 246 621 q 283 789 283 737 l 283 812 q 235 878 283 878 q 188 817 188 878 l 188 707 q 181 650 188 672 l 10 650 l 10 663 q 16 694 15 677 q 18 730 18 712 l 18 754 q 79 951 18 880 q 247 1023 140 1023 q 414 953 356 1023 q 472 770 472 884 q 431 574 472 668 q 345 391 390 480 l 223 158 l 467 158 z "},"3":{"ha":487,"x_min":10,"x_max":477,"o":"m 154 600 l 231 600 q 271 616 256 600 q 285 663 285 631 l 285 814 q 271 862 285 847 q 236 878 258 878 q 203 862 216 878 q 191 817 191 847 l 191 720 q 189 688 191 702 q 183 663 188 673 l 13 663 l 13 676 q 19 708 18 691 q 20 742 20 725 l 20 768 q 80 953 20 884 q 250 1023 139 1023 q 417 952 359 1023 q 475 766 475 881 q 455 655 475 702 q 407 577 436 607 q 348 532 378 547 l 348 519 q 411 472 381 503 q 459 392 441 442 q 477 265 477 342 q 417 60 477 133 q 251 -13 356 -13 q 79 59 140 -13 q 18 259 18 130 l 18 301 q 16 336 18 319 q 10 366 15 352 l 10 379 l 183 379 q 189 354 188 369 q 191 322 191 340 l 191 197 q 203 150 191 168 q 237 133 216 133 q 273 149 260 133 q 285 193 285 165 l 285 388 q 272 432 285 415 q 232 448 259 448 l 154 448 l 154 600 z "},"4":{"ha":460,"x_min":5,"x_max":434,"o":"m 5 221 l 5 354 l 220 1010 l 434 1010 l 434 0 l 245 0 l 245 221 l 5 221 m 150 379 l 245 379 l 245 650 l 232 650 l 150 379 z "},"5":{"ha":491,"x_min":10,"x_max":479,"o":"m 37 1010 l 466 1010 l 466 852 l 212 852 l 202 593 l 215 593 q 322 676 244 676 q 437 601 395 676 q 479 409 479 527 l 479 303 q 415 67 479 146 q 250 -13 351 -13 q 78 61 139 -13 q 18 266 18 134 q 16 303 18 287 q 10 335 15 319 l 10 347 l 187 347 q 193 321 192 337 q 194 288 194 306 l 194 197 q 207 150 194 168 q 241 133 220 133 q 289 197 289 133 l 289 460 q 275 508 289 491 q 239 524 261 524 q 176 461 194 524 l 18 461 l 37 1010 z "},"6":{"ha":514,"x_min":18,"x_max":504,"o":"m 18 442 l 18 549 q 84 912 18 801 q 273 1023 150 1023 q 431 952 378 1023 q 485 764 485 881 q 491 688 485 713 l 491 676 l 328 676 q 321 734 321 701 l 321 813 q 309 855 321 840 q 273 871 297 871 q 234 855 249 871 q 220 807 220 838 l 220 543 l 232 543 q 268 595 244 572 q 340 619 293 619 q 429 582 393 619 q 485 486 466 545 q 504 359 504 427 l 504 303 q 476 141 504 212 q 397 28 448 69 q 273 -13 346 -13 q 88 94 158 -13 q 18 442 18 201 m 220 203 q 234 155 220 172 q 270 139 247 139 q 307 155 293 139 q 321 203 321 172 l 321 403 q 307 451 321 434 q 270 467 293 467 q 234 451 247 467 q 220 403 220 434 l 220 203 z "},"7":{"ha":443,"x_min":10,"x_max":433,"o":"m 10 1010 l 433 1010 l 433 890 l 247 0 l 61 0 l 61 13 l 242 852 l 10 852 l 10 1010 z "},"8":{"ha":513,"x_min":10,"x_max":503,"o":"m 10 256 q 29 381 10 330 q 78 466 48 433 q 136 513 107 499 l 136 525 q 82 573 110 543 q 35 651 54 604 q 16 764 16 698 q 49 902 16 843 q 136 991 81 960 q 256 1023 191 1023 q 378 991 323 1023 q 464 902 432 960 q 496 764 496 843 q 477 651 496 698 q 431 573 458 604 q 376 525 404 543 l 376 513 q 436 466 407 499 q 484 381 465 433 q 503 256 503 330 q 470 114 503 174 q 381 20 437 53 q 256 -13 326 -13 q 131 20 187 -13 q 43 114 76 53 q 10 256 10 174 m 206 663 q 256 587 206 587 q 307 663 307 587 l 307 802 q 256 878 307 878 q 206 802 206 878 l 206 663 m 206 208 q 220 150 206 168 q 256 133 235 133 q 292 150 278 133 q 307 208 307 168 l 307 366 q 292 424 307 407 q 256 442 278 442 q 220 424 235 442 q 206 366 206 407 l 206 208 z "},"9":{"ha":521,"x_min":18,"x_max":504,"o":"m 504 461 q 438 98 504 210 q 254 -13 372 -13 q 92 58 146 -13 q 37 246 37 129 q 30 322 37 297 l 30 335 l 193 335 q 201 277 201 311 l 201 197 q 213 155 201 170 q 249 139 225 139 q 287 155 273 139 q 302 203 302 172 l 302 467 l 289 467 q 254 415 278 439 q 182 391 230 391 q 93 428 130 391 q 37 524 56 465 q 18 652 18 583 l 18 707 q 45 870 18 799 q 125 982 73 941 q 249 1023 177 1023 q 434 916 365 1023 q 504 568 504 809 l 504 461 m 302 607 l 302 807 q 288 855 302 838 q 251 871 274 871 q 215 855 229 871 q 201 807 201 838 l 201 607 q 215 559 201 576 q 251 543 229 543 q 288 559 274 543 q 302 607 302 576 z "},"A":{"ha":480,"x_min":6,"x_max":473,"o":"m 101 1010 l 379 1010 l 473 13 l 473 0 l 297 0 l 275 240 l 205 240 l 183 0 l 6 0 l 6 13 l 101 1010 m 206 404 l 274 404 l 246 751 l 234 751 l 206 404 z "},"Á":{"ha":480,"x_min":6,"x_max":473,"o":"m 101 1010 l 379 1010 l 473 13 l 473 0 l 297 0 l 275 240 l 205 240 l 183 0 l 6 0 l 6 13 l 101 1010 m 206 404 l 274 404 l 246 751 l 234 751 l 206 404 m 278 1048 l 152 1048 l 152 1061 l 202 1181 l 372 1181 l 372 1168 l 278 1048 z "},"Ă":{"ha":480,"x_min":6,"x_max":473,"o":"m 101 1010 l 379 1010 l 473 13 l 473 0 l 297 0 l 275 240 l 205 240 l 183 0 l 6 0 l 6 13 l 101 1010 m 206 404 l 274 404 l 246 751 l 234 751 l 206 404 m 290 1181 l 395 1181 q 357 1081 395 1120 q 240 1042 319 1042 q 122 1081 160 1042 q 85 1181 85 1120 l 189 1181 q 240 1130 193 1130 q 290 1181 287 1130 z "},"Â":{"ha":480,"x_min":6,"x_max":473,"o":"m 101 1010 l 379 1010 l 473 13 l 473 0 l 297 0 l 275 240 l 205 240 l 183 0 l 6 0 l 6 13 l 101 1010 m 206 404 l 274 404 l 246 751 l 234 751 l 206 404 m 284 1048 l 246 1105 l 234 1105 l 196 1048 l 69 1048 l 69 1061 l 152 1181 l 328 1181 l 410 1061 l 410 1048 l 284 1048 z "},"Ä":{"ha":480,"x_min":6,"x_max":473,"o":"m 101 1010 l 379 1010 l 473 13 l 473 0 l 297 0 l 275 240 l 205 240 l 183 0 l 6 0 l 6 13 l 101 1010 m 206 404 l 274 404 l 246 751 l 234 751 l 206 404 m 59 1181 l 217 1181 l 217 1048 l 59 1048 l 59 1181 m 263 1181 l 420 1181 l 420 1048 l 263 1048 l 263 1181 z "},"À":{"ha":480,"x_min":6,"x_max":473,"o":"m 101 1010 l 379 1010 l 473 13 l 473 0 l 297 0 l 275 240 l 205 240 l 183 0 l 6 0 l 6 13 l 101 1010 m 206 404 l 274 404 l 246 751 l 234 751 l 206 404 m 203 1048 l 109 1168 l 109 1181 l 279 1181 l 330 1061 l 330 1048 l 203 1048 z "},"Ā":{"ha":480,"x_min":6,"x_max":473,"o":"m 101 1010 l 379 1010 l 473 13 l 473 0 l 297 0 l 275 240 l 205 240 l 183 0 l 6 0 l 6 13 l 101 1010 m 206 404 l 274 404 l 246 751 l 234 751 l 206 404 m 73 1155 l 408 1155 l 408 1054 l 73 1054 l 73 1155 z "},"Ą":{"ha":480,"x_min":6,"x_max":473,"o":"m 101 1010 l 379 1010 l 473 13 l 473 0 l 297 0 l 275 240 l 205 240 l 183 0 l 6 0 l 6 13 l 101 1010 m 206 404 l 274 404 l 246 751 l 234 751 l 206 404 m 446 0 q 403 -66 417 -40 q 389 -114 389 -91 q 403 -148 389 -138 q 446 -158 418 -158 l 473 -158 l 473 -234 l 431 -234 q 326 -210 369 -234 q 284 -136 284 -187 q 315 -60 284 -92 q 383 0 346 -28 l 446 0 z "},"Å":{"ha":480,"x_min":6,"x_max":473,"o":"m 101 1010 l 379 1010 l 473 13 l 473 0 l 297 0 l 275 240 l 205 240 l 183 0 l 6 0 l 6 13 l 101 1010 m 206 404 l 274 404 l 246 751 l 234 751 l 206 404 m 240 1029 q 164 1058 194 1029 q 133 1130 133 1087 q 164 1203 133 1174 q 240 1231 194 1231 q 316 1203 285 1231 q 347 1130 347 1174 q 316 1058 347 1087 q 240 1029 285 1029 m 240 1098 q 263 1107 254 1098 q 271 1130 271 1116 q 263 1153 271 1144 q 240 1162 254 1162 q 218 1153 227 1162 q 208 1130 208 1144 q 218 1107 208 1116 q 240 1098 227 1098 z "},"Ã":{"ha":480,"x_min":6,"x_max":473,"o":"m 101 1010 l 379 1010 l 473 13 l 473 0 l 297 0 l 275 240 l 205 240 l 183 0 l 6 0 l 6 13 l 101 1010 m 206 404 l 274 404 l 246 751 l 234 751 l 206 404 m 312 1042 q 258 1054 282 1042 q 215 1079 234 1067 q 181 1091 197 1091 q 158 1079 164 1091 q 153 1048 153 1067 l 85 1048 l 85 1082 q 105 1158 85 1129 q 170 1187 125 1187 q 225 1175 202 1187 q 268 1150 249 1163 q 302 1138 287 1138 q 324 1150 318 1138 q 330 1181 330 1162 l 398 1181 l 398 1146 q 378 1071 398 1100 q 312 1042 357 1042 z "},"Æ":{"ha":590,"x_min":6,"x_max":574,"o":"m 101 1010 l 574 1010 l 574 846 l 436 846 l 436 593 l 556 593 l 556 429 l 436 429 l 436 164 l 574 164 l 574 0 l 246 0 l 246 240 l 198 240 l 183 0 l 6 0 l 6 13 l 101 1010 m 199 404 l 246 404 l 246 846 l 234 846 l 199 404 z "},"B":{"ha":515,"x_min":25,"x_max":505,"o":"m 25 1010 l 206 1010 q 350 982 283 1010 q 458 896 417 953 q 499 751 499 838 q 476 636 499 682 q 419 562 453 590 q 347 518 384 534 l 347 505 q 422 463 386 491 q 482 388 458 434 q 505 269 505 341 q 467 119 505 179 q 366 30 429 59 q 225 0 302 0 l 25 0 l 25 1010 m 215 859 l 215 581 l 227 581 q 282 605 260 581 q 303 682 303 630 l 303 758 q 282 834 303 809 q 227 859 260 859 l 215 859 m 215 429 l 215 152 l 227 152 q 285 177 260 152 q 309 259 309 202 l 309 322 q 285 404 309 379 q 227 429 260 429 l 215 429 z "},"C":{"ha":527,"x_min":18,"x_max":516,"o":"m 18 543 q 49 823 18 717 q 138 975 80 928 q 278 1023 196 1023 q 451 939 391 1023 q 510 713 510 856 q 511 678 510 697 q 516 644 513 659 l 516 631 l 327 631 q 321 688 321 653 l 321 813 q 309 855 321 840 q 275 871 298 871 q 226 807 226 871 l 226 210 q 275 145 226 145 q 309 161 298 145 q 321 203 321 177 l 321 328 q 327 385 321 364 l 516 385 l 516 372 q 511 337 511 356 q 510 297 510 318 q 451 71 510 155 q 278 -13 391 -13 q 138 35 196 -13 q 49 188 80 82 q 18 467 18 293 l 18 543 z "},"Ć":{"ha":527,"x_min":18,"x_max":516,"o":"m 18 543 q 49 823 18 717 q 138 975 80 928 q 278 1023 196 1023 q 451 939 391 1023 q 510 713 510 856 q 511 678 510 697 q 516 644 513 659 l 516 631 l 327 631 q 321 688 321 653 l 321 813 q 309 855 321 840 q 275 871 298 871 q 226 807 226 871 l 226 210 q 275 145 226 145 q 309 161 298 145 q 321 203 321 177 l 321 328 q 327 385 321 364 l 516 385 l 516 372 q 511 337 511 356 q 510 297 510 318 q 451 71 510 155 q 278 -13 391 -13 q 138 35 196 -13 q 49 188 80 82 q 18 467 18 293 l 18 543 m 313 1048 l 187 1048 l 187 1061 l 237 1181 l 408 1181 l 408 1168 l 313 1048 z "},"Č":{"ha":527,"x_min":18,"x_max":516,"o":"m 18 543 q 49 823 18 717 q 138 975 80 928 q 278 1023 196 1023 q 451 939 391 1023 q 510 713 510 856 q 511 678 510 697 q 516 644 513 659 l 516 631 l 327 631 q 321 688 321 653 l 321 813 q 309 855 321 840 q 275 871 298 871 q 226 807 226 871 l 226 210 q 275 145 226 145 q 309 161 298 145 q 321 203 321 177 l 321 328 q 327 385 321 364 l 516 385 l 516 372 q 511 337 511 356 q 510 297 510 318 q 451 71 510 155 q 278 -13 391 -13 q 138 35 196 -13 q 49 188 80 82 q 18 467 18 293 l 18 543 m 187 1048 l 105 1168 l 105 1181 l 231 1181 l 269 1124 l 282 1124 l 319 1181 l 446 1181 l 446 1168 l 364 1048 l 187 1048 z "},"Ç":{"ha":527,"x_min":18,"x_max":516,"o":"m 18 543 q 49 823 18 717 q 138 975 80 928 q 278 1023 196 1023 q 451 939 391 1023 q 510 713 510 856 q 511 678 510 697 q 516 644 513 659 l 516 631 l 327 631 q 321 688 321 653 l 321 813 q 309 855 321 840 q 275 871 298 871 q 226 807 226 871 l 226 210 q 275 145 226 145 q 309 161 298 145 q 321 203 321 177 l 321 328 q 327 385 321 364 l 516 385 l 516 372 q 511 337 511 356 q 510 297 510 318 q 451 71 510 155 q 278 -13 391 -13 q 138 35 196 -13 q 49 188 80 82 q 18 467 18 293 l 18 543 m 245 0 l 311 0 l 311 -63 l 323 -63 q 343 -45 330 -53 q 376 -37 356 -37 q 419 -52 402 -37 q 437 -101 437 -68 q 400 -177 437 -146 q 308 -225 364 -208 q 197 -246 253 -241 l 184 -246 l 184 -158 l 263 -158 q 322 -125 322 -158 q 293 -104 322 -104 l 245 -104 l 245 0 z "},"Ċ":{"ha":527,"x_min":18,"x_max":516,"o":"m 18 543 q 49 823 18 717 q 138 975 80 928 q 278 1023 196 1023 q 451 939 391 1023 q 510 713 510 856 q 511 678 510 697 q 516 644 513 659 l 516 631 l 327 631 q 321 688 321 653 l 321 813 q 309 855 321 840 q 275 871 298 871 q 226 807 226 871 l 226 210 q 275 145 226 145 q 309 161 298 145 q 321 203 321 177 l 321 328 q 327 385 321 364 l 516 385 l 516 372 q 511 337 511 356 q 510 297 510 318 q 451 71 510 155 q 278 -13 391 -13 q 138 35 196 -13 q 49 188 80 82 q 18 467 18 293 l 18 543 m 178 1181 l 374 1181 l 374 1048 l 178 1048 l 178 1181 z "},"D":{"ha":510,"x_min":25,"x_max":492,"o":"m 25 1010 l 202 1010 q 416 913 340 1010 q 492 593 492 816 l 492 417 q 416 97 492 194 q 202 0 340 0 l 25 0 l 25 1010 m 208 859 l 208 158 l 227 158 q 283 182 264 158 q 303 247 303 207 l 303 769 q 283 834 303 809 q 227 859 264 859 l 208 859 z "},"Ð":{"ha":548,"x_min":0,"x_max":530,"o":"m 0 556 l 63 556 l 63 1010 l 240 1010 q 454 913 378 1010 q 530 593 530 816 l 530 417 q 454 97 530 194 q 240 0 378 0 l 63 0 l 63 480 l 0 480 l 0 556 m 246 859 l 246 556 l 309 556 l 309 480 l 246 480 l 246 158 l 265 158 q 321 182 302 158 q 341 247 341 207 l 341 769 q 321 834 341 809 q 265 859 302 859 l 246 859 z "},"Ď":{"ha":510,"x_min":25,"x_max":492,"o":"m 25 1010 l 202 1010 q 416 913 340 1010 q 492 593 492 816 l 492 417 q 416 97 492 194 q 202 0 340 0 l 25 0 l 25 1010 m 208 859 l 208 158 l 227 158 q 283 182 264 158 q 303 247 303 207 l 303 769 q 283 834 303 809 q 227 859 264 859 l 208 859 m 126 1048 l 44 1168 l 44 1181 l 170 1181 l 208 1124 l 221 1124 l 259 1181 l 385 1181 l 385 1168 l 303 1048 l 126 1048 z "},"Đ":{"ha":548,"x_min":0,"x_max":530,"o":"m 0 556 l 63 556 l 63 1010 l 240 1010 q 454 913 378 1010 q 530 593 530 816 l 530 417 q 454 97 530 194 q 240 0 378 0 l 63 0 l 63 480 l 0 480 l 0 556 m 246 859 l 246 556 l 309 556 l 309 480 l 246 480 l 246 158 l 265 158 q 321 182 302 158 q 341 247 341 207 l 341 769 q 321 834 341 809 q 265 859 302 859 l 246 859 z "},"E":{"ha":381,"x_min":25,"x_max":366,"o":"m 25 1010 l 366 1010 l 366 846 l 215 846 l 215 593 l 347 593 l 347 429 l 215 429 l 215 164 l 366 164 l 366 0 l 25 0 l 25 1010 z "},"É":{"ha":381,"x_min":25,"x_max":366,"o":"m 25 1010 l 366 1010 l 366 846 l 215 846 l 215 593 l 347 593 l 347 429 l 215 429 l 215 164 l 366 164 l 366 0 l 25 0 l 25 1010 m 227 1048 l 101 1048 l 101 1061 l 152 1181 l 322 1181 l 322 1168 l 227 1048 z "},"Ě":{"ha":381,"x_min":19,"x_max":366,"o":"m 25 1010 l 366 1010 l 366 846 l 215 846 l 215 593 l 347 593 l 347 429 l 215 429 l 215 164 l 366 164 l 366 0 l 25 0 l 25 1010 m 101 1048 l 19 1168 l 19 1181 l 145 1181 l 183 1124 l 196 1124 l 234 1181 l 360 1181 l 360 1168 l 278 1048 l 101 1048 z "},"Ê":{"ha":381,"x_min":19,"x_max":366,"o":"m 25 1010 l 366 1010 l 366 846 l 215 846 l 215 593 l 347 593 l 347 429 l 215 429 l 215 164 l 366 164 l 366 0 l 25 0 l 25 1010 m 234 1048 l 196 1105 l 183 1105 l 145 1048 l 19 1048 l 19 1061 l 101 1181 l 278 1181 l 360 1061 l 360 1048 l 234 1048 z "},"Ë":{"ha":381,"x_min":9,"x_max":370,"o":"m 25 1010 l 366 1010 l 366 846 l 215 846 l 215 593 l 347 593 l 347 429 l 215 429 l 215 164 l 366 164 l 366 0 l 25 0 l 25 1010 m 9 1181 l 167 1181 l 167 1048 l 9 1048 l 9 1181 m 212 1181 l 370 1181 l 370 1048 l 212 1048 l 212 1181 z "},"Ė":{"ha":381,"x_min":25,"x_max":366,"o":"m 25 1010 l 366 1010 l 366 846 l 215 846 l 215 593 l 347 593 l 347 429 l 215 429 l 215 164 l 366 164 l 366 0 l 25 0 l 25 1010 m 92 1181 l 288 1181 l 288 1048 l 92 1048 l 92 1181 z "},"È":{"ha":381,"x_min":25,"x_max":366,"o":"m 25 1010 l 366 1010 l 366 846 l 215 846 l 215 593 l 347 593 l 347 429 l 215 429 l 215 164 l 366 164 l 366 0 l 25 0 l 25 1010 m 153 1048 l 58 1168 l 58 1181 l 229 1181 l 279 1061 l 279 1048 l 153 1048 z "},"Ē":{"ha":381,"x_min":23,"x_max":366,"o":"m 25 1010 l 366 1010 l 366 846 l 215 846 l 215 593 l 347 593 l 347 429 l 215 429 l 215 164 l 366 164 l 366 0 l 25 0 l 25 1010 m 23 1155 l 357 1155 l 357 1054 l 23 1054 l 23 1155 z "},"Ę":{"ha":381,"x_min":25,"x_max":366,"o":"m 25 1010 l 366 1010 l 366 846 l 215 846 l 215 593 l 347 593 l 347 429 l 215 429 l 215 164 l 366 164 l 366 0 l 25 0 l 25 1010 m 338 0 q 295 -66 309 -40 q 282 -114 282 -91 q 296 -148 282 -138 q 338 -158 311 -158 l 366 -158 l 366 -234 l 323 -234 q 219 -210 261 -234 q 177 -136 177 -187 q 208 -60 177 -92 q 275 0 239 -28 l 338 0 z "},"F":{"ha":376,"x_min":25,"x_max":366,"o":"m 25 0 l 25 1010 l 366 1010 l 366 846 l 215 846 l 215 593 l 341 593 l 341 429 l 215 429 l 215 0 l 25 0 z "},"G":{"ha":529,"x_min":18,"x_max":516,"o":"m 18 543 q 50 823 18 717 q 141 975 82 928 q 280 1023 201 1023 q 452 936 394 1023 q 510 707 510 850 q 511 672 510 691 q 516 638 513 653 l 516 625 l 327 625 q 321 682 321 646 l 321 813 q 309 855 321 840 q 275 871 298 871 q 226 807 226 871 l 226 210 q 275 145 226 145 q 309 161 298 145 q 321 203 321 177 l 321 410 l 504 410 l 504 0 l 415 0 l 384 130 l 371 130 q 332 30 365 72 q 229 -13 299 -13 q 156 6 193 -13 q 87 70 119 25 q 37 192 56 115 q 18 385 18 269 l 18 543 z "},"Ğ":{"ha":529,"x_min":18,"x_max":516,"o":"m 18 543 q 50 823 18 717 q 141 975 82 928 q 280 1023 201 1023 q 452 936 394 1023 q 510 707 510 850 q 511 672 510 691 q 516 638 513 653 l 516 625 l 327 625 q 321 682 321 646 l 321 813 q 309 855 321 840 q 275 871 298 871 q 226 807 226 871 l 226 210 q 275 145 226 145 q 309 161 298 145 q 321 203 321 177 l 321 410 l 504 410 l 504 0 l 415 0 l 384 130 l 371 130 q 332 30 365 72 q 229 -13 299 -13 q 156 6 193 -13 q 87 70 119 25 q 37 192 56 115 q 18 385 18 269 l 18 543 m 326 1181 l 431 1181 q 393 1081 431 1120 q 275 1042 355 1042 q 158 1081 196 1042 q 120 1181 120 1120 l 225 1181 q 275 1130 229 1130 q 326 1181 322 1130 z "},"Ģ":{"ha":529,"x_min":18,"x_max":516,"o":"m 18 543 q 50 823 18 717 q 141 975 82 928 q 280 1023 201 1023 q 452 936 394 1023 q 510 707 510 850 q 511 672 510 691 q 516 638 513 653 l 516 625 l 327 625 q 321 682 321 646 l 321 813 q 309 855 321 840 q 275 871 298 871 q 226 807 226 871 l 226 210 q 275 145 226 145 q 309 161 298 145 q 321 203 321 177 l 321 410 l 504 410 l 504 0 l 415 0 l 384 130 l 371 130 q 332 30 365 72 q 229 -13 299 -13 q 156 6 193 -13 q 87 70 119 25 q 37 192 56 115 q 18 385 18 269 l 18 543 m 193 -44 l 376 -44 l 376 -158 l 282 -265 l 225 -265 l 225 -253 l 282 -164 l 193 -164 l 193 -44 z "},"Ġ":{"ha":529,"x_min":18,"x_max":516,"o":"m 18 543 q 50 823 18 717 q 141 975 82 928 q 280 1023 201 1023 q 452 936 394 1023 q 510 707 510 850 q 511 672 510 691 q 516 638 513 653 l 516 625 l 327 625 q 321 682 321 646 l 321 813 q 309 855 321 840 q 275 871 298 871 q 226 807 226 871 l 226 210 q 275 145 226 145 q 309 161 298 145 q 321 203 321 177 l 321 410 l 504 410 l 504 0 l 415 0 l 384 130 l 371 130 q 332 30 365 72 q 229 -13 299 -13 q 156 6 193 -13 q 87 70 119 25 q 37 192 56 115 q 18 385 18 269 l 18 543 m 178 1181 l 374 1181 l 374 1048 l 178 1048 l 178 1181 z "},"H":{"ha":499,"x_min":25,"x_max":473,"o":"m 25 1010 l 208 1010 l 208 593 l 290 593 l 290 1010 l 473 1010 l 473 0 l 290 0 l 290 429 l 208 429 l 208 0 l 25 0 l 25 1010 z "},"Ħ":{"ha":574,"x_min":0,"x_max":574,"o":"m 0 833 l 63 833 l 63 1010 l 246 1010 l 246 833 l 328 833 l 328 1010 l 511 1010 l 511 833 l 574 833 l 574 758 l 511 758 l 511 0 l 328 0 l 328 429 l 246 429 l 246 0 l 63 0 l 63 758 l 0 758 l 0 833 m 246 593 l 328 593 l 328 758 l 246 758 l 246 593 z "},"I":{"ha":240,"x_min":25,"x_max":215,"o":"m 25 1010 l 215 1010 l 215 0 l 25 0 l 25 1010 z "},"Í":{"ha":240,"x_min":25,"x_max":253,"o":"m 25 1010 l 215 1010 l 215 0 l 25 0 l 25 1010 m 158 1048 l 32 1048 l 32 1061 l 82 1181 l 253 1181 l 253 1168 l 158 1048 z "},"Î":{"ha":240,"x_min":-51,"x_max":290,"o":"m 25 1010 l 215 1010 l 215 0 l 25 0 l 25 1010 m 164 1048 l 126 1105 l 114 1105 l 76 1048 l -51 1048 l -51 1061 l 32 1181 l 208 1181 l 290 1061 l 290 1048 l 164 1048 z "},"Ï":{"ha":240,"x_min":-61,"x_max":301,"o":"m 25 1010 l 215 1010 l 215 0 l 25 0 l 25 1010 m -61 1181 l 97 1181 l 97 1048 l -61 1048 l -61 1181 m 143 1181 l 301 1181 l 301 1048 l 143 1048 l 143 1181 z "},"İ":{"ha":240,"x_min":23,"x_max":218,"o":"m 25 1010 l 215 1010 l 215 0 l 25 0 l 25 1010 m 23 1181 l 218 1181 l 218 1048 l 23 1048 l 23 1181 z "},"Ì":{"ha":240,"x_min":-11,"x_max":215,"o":"m 25 1010 l 215 1010 l 215 0 l 25 0 l 25 1010 m 83 1048 l -11 1168 l -11 1181 l 159 1181 l 210 1061 l 210 1048 l 83 1048 z "},"Ī":{"ha":240,"x_min":-47,"x_max":288,"o":"m 25 1010 l 215 1010 l 215 0 l 25 0 l 25 1010 m -47 1155 l 288 1155 l 288 1054 l -47 1054 l -47 1155 z "},"Į":{"ha":240,"x_min":25,"x_max":215,"o":"m 25 1010 l 215 1010 l 215 0 l 25 0 l 25 1010 m 187 0 q 144 -66 158 -40 q 130 -114 130 -91 q 145 -148 130 -138 q 187 -158 159 -158 l 215 -158 l 215 -234 l 172 -234 q 68 -210 110 -234 q 25 -136 25 -187 q 56 -60 25 -92 q 124 0 87 -28 l 187 0 z "},"J":{"ha":379,"x_min":13,"x_max":354,"o":"m 25 1010 l 354 1010 l 354 208 q 309 54 354 114 q 164 -6 264 -6 q 75 -2 112 -6 q 13 6 38 3 l 25 164 l 119 164 q 170 216 170 164 l 170 846 l 25 846 l 25 1010 z "},"K":{"ha":486,"x_min":25,"x_max":486,"o":"m 25 0 l 25 1010 l 215 1010 l 206 673 l 218 673 l 303 1010 l 480 1010 l 480 997 l 366 518 l 366 505 l 486 13 l 486 0 l 303 0 l 218 343 l 206 343 l 215 0 l 25 0 z "},"Ķ":{"ha":486,"x_min":25,"x_max":486,"o":"m 25 0 l 25 1010 l 215 1010 l 206 673 l 218 673 l 303 1010 l 480 1010 l 480 997 l 366 518 l 366 505 l 486 13 l 486 0 l 303 0 l 218 343 l 206 343 l 215 0 l 25 0 m 162 -44 l 345 -44 l 345 -158 l 250 -265 l 193 -265 l 193 -253 l 250 -164 l 162 -164 l 162 -44 z "},"L":{"ha":383,"x_min":25,"x_max":372,"o":"m 25 1010 l 215 1010 l 215 164 l 372 164 l 372 0 l 25 0 l 25 1010 z "},"Ĺ":{"ha":383,"x_min":25,"x_max":372,"o":"m 25 1010 l 215 1010 l 215 164 l 372 164 l 372 0 l 25 0 l 25 1010 m 158 1048 l 32 1048 l 32 1061 l 82 1181 l 253 1181 l 253 1168 l 158 1048 z "},"Ľ":{"ha":383,"x_min":-51,"x_max":372,"o":"m 25 1010 l 215 1010 l 215 164 l 372 164 l 372 0 l 25 0 l 25 1010 m 32 1048 l -51 1168 l -51 1181 l 76 1181 l 114 1124 l 126 1124 l 164 1181 l 290 1181 l 290 1168 l 208 1048 l 32 1048 z "},"Ļ":{"ha":383,"x_min":25,"x_max":372,"o":"m 25 1010 l 215 1010 l 215 164 l 372 164 l 372 0 l 25 0 l 25 1010 m 105 -44 l 288 -44 l 288 -158 l 193 -265 l 136 -265 l 136 -253 l 193 -164 l 105 -164 l 105 -44 z "},"Ł":{"ha":433,"x_min":0,"x_max":423,"o":"m 0 521 l 76 545 l 76 1010 l 265 1010 l 265 606 l 335 628 l 347 628 l 347 547 l 265 520 l 265 164 l 423 164 l 423 0 l 76 0 l 76 461 l 13 441 l 0 441 l 0 521 z "},"M":{"ha":644,"x_min":25,"x_max":619,"o":"m 25 1010 l 234 1010 l 316 467 l 328 467 l 410 1010 l 619 1010 l 619 0 l 455 0 l 467 467 l 455 467 l 385 0 l 259 0 l 189 467 l 177 467 l 189 0 l 25 0 l 25 1010 z "},"N":{"ha":492,"x_min":25,"x_max":467,"o":"m 25 1010 l 189 1010 l 297 505 l 309 505 l 290 1010 l 467 1010 l 467 0 l 303 0 l 196 505 l 183 505 l 202 0 l 25 0 l 25 1010 z "},"Ń":{"ha":492,"x_min":25,"x_max":467,"o":"m 25 1010 l 189 1010 l 297 505 l 309 505 l 290 1010 l 467 1010 l 467 0 l 303 0 l 196 505 l 183 505 l 202 0 l 25 0 l 25 1010 m 288 1048 l 162 1048 l 162 1061 l 212 1181 l 383 1181 l 383 1168 l 288 1048 z "},"Ň":{"ha":492,"x_min":25,"x_max":467,"o":"m 25 1010 l 189 1010 l 297 505 l 309 505 l 290 1010 l 467 1010 l 467 0 l 303 0 l 196 505 l 183 505 l 202 0 l 25 0 l 25 1010 m 162 1048 l 80 1168 l 80 1181 l 206 1181 l 244 1124 l 256 1124 l 294 1181 l 420 1181 l 420 1168 l 338 1048 l 162 1048 z "},"Ņ":{"ha":492,"x_min":25,"x_max":467,"o":"m 25 1010 l 189 1010 l 297 505 l 309 505 l 290 1010 l 467 1010 l 467 0 l 303 0 l 196 505 l 183 505 l 202 0 l 25 0 l 25 1010 m 162 -44 l 345 -44 l 345 -158 l 250 -265 l 193 -265 l 193 -253 l 250 -164 l 162 -164 l 162 -44 z "},"Ŋ":{"ha":492,"x_min":25,"x_max":467,"o":"m 25 1010 l 189 1010 l 297 505 l 309 505 l 290 1010 l 467 1010 l 467 -25 q 446 -128 467 -91 q 393 -181 426 -165 q 322 -196 360 -196 q 258 -189 284 -196 q 217 -177 231 -182 l 227 -76 l 253 -76 q 287 -64 277 -76 q 297 -25 297 -53 l 297 30 l 196 505 l 183 505 l 202 0 l 25 0 l 25 1010 z "},"Ñ":{"ha":492,"x_min":25,"x_max":467,"o":"m 25 1010 l 189 1010 l 297 505 l 309 505 l 290 1010 l 467 1010 l 467 0 l 303 0 l 196 505 l 183 505 l 202 0 l 25 0 l 25 1010 m 313 1061 q 263 1074 283 1061 q 229 1103 244 1088 q 197 1117 215 1117 q 169 1067 169 1117 l 101 1067 l 101 1107 q 121 1186 101 1154 q 187 1218 141 1218 q 238 1204 218 1218 q 272 1176 258 1189 q 303 1162 287 1162 q 331 1212 331 1162 l 399 1212 l 399 1172 q 379 1093 399 1125 q 313 1061 359 1061 z "},"O":{"ha":553,"x_min":18,"x_max":535,"o":"m 18 467 l 18 543 q 48 823 18 717 q 136 975 78 928 q 277 1023 194 1023 q 417 975 359 1023 q 505 823 475 928 q 535 543 535 717 l 535 467 q 505 188 535 293 q 417 35 475 82 q 277 -13 359 -13 q 136 35 194 -13 q 48 188 78 82 q 18 467 18 293 m 226 807 l 226 210 q 240 162 226 178 q 277 145 254 145 q 313 162 299 145 q 327 210 327 178 l 327 807 q 313 855 327 838 q 277 871 299 871 q 240 855 254 871 q 226 807 226 838 z "},"Ó":{"ha":553,"x_min":18,"x_max":535,"o":"m 18 467 l 18 543 q 48 823 18 717 q 136 975 78 928 q 277 1023 194 1023 q 417 975 359 1023 q 505 823 475 928 q 535 543 535 717 l 535 467 q 505 188 535 293 q 417 35 475 82 q 277 -13 359 -13 q 136 35 194 -13 q 48 188 78 82 q 18 467 18 293 m 226 807 l 226 210 q 240 162 226 178 q 277 145 254 145 q 313 162 299 145 q 327 210 327 178 l 327 807 q 313 855 327 838 q 277 871 299 871 q 240 855 254 871 q 226 807 226 838 m 314 1048 l 188 1048 l 188 1061 l 239 1181 l 409 1181 l 409 1168 l 314 1048 z "},"Ô":{"ha":553,"x_min":18,"x_max":535,"o":"m 18 467 l 18 543 q 48 823 18 717 q 136 975 78 928 q 277 1023 194 1023 q 417 975 359 1023 q 505 823 475 928 q 535 543 535 717 l 535 467 q 505 188 535 293 q 417 35 475 82 q 277 -13 359 -13 q 136 35 194 -13 q 48 188 78 82 q 18 467 18 293 m 226 807 l 226 210 q 240 162 226 178 q 277 145 254 145 q 313 162 299 145 q 327 210 327 178 l 327 807 q 313 855 327 838 q 277 871 299 871 q 240 855 254 871 q 226 807 226 838 m 321 1048 l 283 1105 l 270 1105 l 232 1048 l 106 1048 l 106 1061 l 188 1181 l 365 1181 l 447 1061 l 447 1048 l 321 1048 z "},"Ö":{"ha":553,"x_min":18,"x_max":535,"o":"m 18 467 l 18 543 q 48 823 18 717 q 136 975 78 928 q 277 1023 194 1023 q 417 975 359 1023 q 505 823 475 928 q 535 543 535 717 l 535 467 q 505 188 535 293 q 417 35 475 82 q 277 -13 359 -13 q 136 35 194 -13 q 48 188 78 82 q 18 467 18 293 m 226 807 l 226 210 q 240 162 226 178 q 277 145 254 145 q 313 162 299 145 q 327 210 327 178 l 327 807 q 313 855 327 838 q 277 871 299 871 q 240 855 254 871 q 226 807 226 838 m 96 1181 l 254 1181 l 254 1048 l 96 1048 l 96 1181 m 299 1181 l 457 1181 l 457 1048 l 299 1048 l 299 1181 z "},"Ò":{"ha":553,"x_min":18,"x_max":535,"o":"m 18 467 l 18 543 q 48 823 18 717 q 136 975 78 928 q 277 1023 194 1023 q 417 975 359 1023 q 505 823 475 928 q 535 543 535 717 l 535 467 q 505 188 535 293 q 417 35 475 82 q 277 -13 359 -13 q 136 35 194 -13 q 48 188 78 82 q 18 467 18 293 m 226 807 l 226 210 q 240 162 226 178 q 277 145 254 145 q 313 162 299 145 q 327 210 327 178 l 327 807 q 313 855 327 838 q 277 871 299 871 q 240 855 254 871 q 226 807 226 838 m 240 1048 l 145 1168 l 145 1181 l 316 1181 l 366 1061 l 366 1048 l 240 1048 z "},"Ő":{"ha":553,"x_min":18,"x_max":535,"o":"m 18 467 l 18 543 q 48 823 18 717 q 136 975 78 928 q 277 1023 194 1023 q 417 975 359 1023 q 505 823 475 928 q 535 543 535 717 l 535 467 q 505 188 535 293 q 417 35 475 82 q 277 -13 359 -13 q 136 35 194 -13 q 48 188 78 82 q 18 467 18 293 m 226 807 l 226 210 q 240 162 226 178 q 277 145 254 145 q 313 162 299 145 q 327 210 327 178 l 327 807 q 313 855 327 838 q 277 871 299 871 q 240 855 254 871 q 226 807 226 838 m 239 1048 l 125 1048 l 125 1061 l 131 1181 l 285 1181 l 285 1168 l 239 1048 m 419 1048 l 299 1048 l 299 1061 l 318 1181 l 479 1181 l 479 1168 l 419 1048 z "},"Ō":{"ha":553,"x_min":18,"x_max":535,"o":"m 18 467 l 18 543 q 48 823 18 717 q 136 975 78 928 q 277 1023 194 1023 q 417 975 359 1023 q 505 823 475 928 q 535 543 535 717 l 535 467 q 505 188 535 293 q 417 35 475 82 q 277 -13 359 -13 q 136 35 194 -13 q 48 188 78 82 q 18 467 18 293 m 226 807 l 226 210 q 240 162 226 178 q 277 145 254 145 q 313 162 299 145 q 327 210 327 178 l 327 807 q 313 855 327 838 q 277 871 299 871 q 240 855 254 871 q 226 807 226 838 m 110 1155 l 444 1155 l 444 1054 l 110 1054 l 110 1155 z "},"Ø":{"ha":553,"x_min":18,"x_max":535,"o":"m 27 13 l 72 122 q 32 266 45 181 q 18 467 18 351 l 18 543 q 48 823 18 717 q 136 975 78 928 q 277 1023 194 1023 q 364 1007 324 1023 q 436 957 404 991 l 458 1010 l 527 1010 l 527 997 l 481 888 q 521 744 508 830 q 535 543 535 659 l 535 467 q 505 188 535 293 q 417 35 475 82 q 277 -13 359 -13 q 189 3 229 -13 q 117 53 149 19 l 95 0 l 27 0 l 27 13 m 226 807 l 226 492 l 239 492 l 327 707 l 327 807 q 313 855 327 838 q 277 871 299 871 q 240 855 254 871 q 226 807 226 838 m 277 145 q 313 162 299 145 q 327 210 327 178 l 327 518 l 314 518 l 227 303 l 226 301 l 226 210 q 240 162 226 178 q 277 145 254 145 z "},"Õ":{"ha":553,"x_min":18,"x_max":535,"o":"m 18 467 l 18 543 q 48 823 18 717 q 136 975 78 928 q 277 1023 194 1023 q 417 975 359 1023 q 505 823 475 928 q 535 543 535 717 l 535 467 q 505 188 535 293 q 417 35 475 82 q 277 -13 359 -13 q 136 35 194 -13 q 48 188 78 82 q 18 467 18 293 m 226 807 l 226 210 q 240 162 226 178 q 277 145 254 145 q 313 162 299 145 q 327 210 327 178 l 327 807 q 313 855 327 838 q 277 871 299 871 q 240 855 254 871 q 226 807 226 838 m 348 1042 q 294 1054 318 1042 q 252 1079 270 1067 q 217 1091 234 1091 q 195 1079 201 1091 q 189 1048 189 1067 l 121 1048 l 121 1082 q 141 1158 121 1129 q 207 1187 162 1187 q 262 1175 239 1187 q 304 1150 285 1163 q 338 1138 323 1138 q 360 1150 355 1138 q 366 1181 366 1162 l 434 1181 l 434 1146 q 414 1071 434 1100 q 348 1042 394 1042 z "},"Œ":{"ha":633,"x_min":18,"x_max":617,"o":"m 617 1010 l 617 846 l 479 846 l 479 593 l 598 593 l 598 429 l 479 429 l 479 164 l 617 164 l 617 0 l 289 0 q 143 47 205 0 q 50 198 82 95 q 18 467 18 301 l 18 543 q 50 813 18 711 q 143 963 82 915 q 289 1010 205 1010 l 617 1010 m 226 801 l 226 216 q 289 152 226 152 l 289 865 q 226 801 226 865 z "},"P":{"ha":509,"x_min":25,"x_max":499,"o":"m 25 1010 l 212 1010 q 354 976 289 1010 q 459 872 419 942 q 499 694 499 802 l 499 669 q 460 492 499 562 q 355 388 420 422 q 215 354 290 354 l 215 0 l 25 0 l 25 1010 m 215 859 l 215 505 l 227 505 q 287 528 265 505 q 309 606 309 552 l 309 758 q 287 835 309 812 q 227 859 265 859 l 215 859 z "},"Þ":{"ha":509,"x_min":25,"x_max":499,"o":"m 25 1010 l 215 1010 l 215 846 q 356 811 292 846 q 460 707 420 777 q 499 530 499 638 l 499 505 q 460 328 499 398 q 355 223 420 258 q 215 189 290 189 l 215 0 l 25 0 l 25 1010 m 215 694 l 215 341 l 227 341 q 287 364 265 341 q 309 442 309 388 l 309 593 q 287 671 309 648 q 227 694 265 694 l 215 694 z "},"Q":{"ha":553,"x_min":18,"x_max":535,"o":"m 18 543 q 48 823 18 717 q 136 975 78 928 q 277 1023 194 1023 q 417 975 359 1023 q 505 823 475 928 q 535 543 535 717 l 535 467 q 495 157 535 266 q 379 10 455 48 l 434 -101 l 434 -114 l 264 -114 l 253 -11 q 79 109 140 -3 q 18 467 18 220 l 18 543 m 226 807 l 226 210 q 240 162 226 178 q 277 145 254 145 q 313 162 299 145 q 327 210 327 178 l 327 807 q 313 855 327 838 q 277 871 299 871 q 240 855 254 871 q 226 807 226 838 z "},"R":{"ha":503,"x_min":25,"x_max":492,"o":"m 25 1010 l 212 1010 q 355 974 292 1010 q 456 870 419 938 q 492 703 492 802 q 465 549 492 609 q 385 438 437 490 l 480 13 l 480 0 l 297 0 l 225 384 l 206 384 l 215 0 l 25 0 l 25 1010 m 215 859 l 215 518 l 221 518 q 278 543 254 518 q 303 619 303 568 l 303 758 q 278 833 303 808 q 221 859 254 859 l 215 859 z "},"Ŕ":{"ha":503,"x_min":25,"x_max":492,"o":"m 25 1010 l 212 1010 q 355 974 292 1010 q 456 870 419 938 q 492 703 492 802 q 465 549 492 609 q 385 438 437 490 l 480 13 l 480 0 l 297 0 l 225 384 l 206 384 l 215 0 l 25 0 l 25 1010 m 215 859 l 215 518 l 221 518 q 278 543 254 518 q 303 619 303 568 l 303 758 q 278 833 303 808 q 221 859 254 859 l 215 859 m 263 1048 l 136 1048 l 136 1061 l 187 1181 l 357 1181 l 357 1168 l 263 1048 z "},"Ř":{"ha":503,"x_min":25,"x_max":492,"o":"m 25 1010 l 212 1010 q 355 974 292 1010 q 456 870 419 938 q 492 703 492 802 q 465 549 492 609 q 385 438 437 490 l 480 13 l 480 0 l 297 0 l 225 384 l 206 384 l 215 0 l 25 0 l 25 1010 m 215 859 l 215 518 l 221 518 q 278 543 254 518 q 303 619 303 568 l 303 758 q 278 833 303 808 q 221 859 254 859 l 215 859 m 136 1048 l 54 1168 l 54 1181 l 181 1181 l 218 1124 l 231 1124 l 269 1181 l 395 1181 l 395 1168 l 313 1048 l 136 1048 z "},"Ŗ":{"ha":503,"x_min":25,"x_max":492,"o":"m 25 1010 l 212 1010 q 355 974 292 1010 q 456 870 419 938 q 492 703 492 802 q 465 549 492 609 q 385 438 437 490 l 480 13 l 480 0 l 297 0 l 225 384 l 206 384 l 215 0 l 25 0 l 25 1010 m 215 859 l 215 518 l 221 518 q 278 543 254 518 q 303 619 303 568 l 303 758 q 278 833 303 808 q 221 859 254 859 l 215 859 m 162 -44 l 345 -44 l 345 -158 l 250 -265 l 193 -265 l 193 -253 l 250 -164 l 162 -164 l 162 -44 z "},"S":{"ha":485,"x_min":5,"x_max":476,"o":"m 5 347 l 178 347 q 184 323 183 338 q 186 290 186 307 l 186 197 q 198 150 186 168 q 232 133 211 133 q 280 202 280 133 q 247 319 280 263 q 172 431 213 376 l 135 479 q 66 581 92 535 q 27 674 39 628 q 14 777 14 721 q 75 954 14 885 q 244 1023 136 1023 q 410 952 352 1023 q 468 761 468 881 q 470 721 468 739 q 476 688 471 703 l 476 676 l 306 676 q 298 732 298 697 l 298 817 q 285 862 298 847 q 253 878 273 878 q 218 861 232 878 q 203 807 203 845 q 230 706 203 751 q 298 609 256 662 l 336 561 q 436 406 402 479 q 470 240 470 333 q 409 56 470 125 q 245 -13 348 -13 q 71 59 130 -13 q 13 264 13 131 q 11 304 13 287 q 5 335 10 321 l 5 347 z "},"Ś":{"ha":485,"x_min":5,"x_max":476,"o":"m 5 347 l 178 347 q 184 323 183 338 q 186 290 186 307 l 186 197 q 198 150 186 168 q 232 133 211 133 q 280 202 280 133 q 247 319 280 263 q 172 431 213 376 l 135 479 q 66 581 92 535 q 27 674 39 628 q 14 777 14 721 q 75 954 14 885 q 244 1023 136 1023 q 410 952 352 1023 q 468 761 468 881 q 470 721 468 739 q 476 688 471 703 l 476 676 l 306 676 q 298 732 298 697 l 298 817 q 285 862 298 847 q 253 878 273 878 q 218 861 232 878 q 203 807 203 845 q 230 706 203 751 q 298 609 256 662 l 336 561 q 436 406 402 479 q 470 240 470 333 q 409 56 470 125 q 245 -13 348 -13 q 71 59 130 -13 q 13 264 13 131 q 11 304 13 287 q 5 335 10 321 l 5 347 m 278 1048 l 152 1048 l 152 1061 l 202 1181 l 372 1181 l 372 1168 l 278 1048 z "},"Š":{"ha":485,"x_min":5,"x_max":476,"o":"m 5 347 l 178 347 q 184 323 183 338 q 186 290 186 307 l 186 197 q 198 150 186 168 q 232 133 211 133 q 280 202 280 133 q 247 319 280 263 q 172 431 213 376 l 135 479 q 66 581 92 535 q 27 674 39 628 q 14 777 14 721 q 75 954 14 885 q 244 1023 136 1023 q 410 952 352 1023 q 468 761 468 881 q 470 721 468 739 q 476 688 471 703 l 476 676 l 306 676 q 298 732 298 697 l 298 817 q 285 862 298 847 q 253 878 273 878 q 218 861 232 878 q 203 807 203 845 q 230 706 203 751 q 298 609 256 662 l 336 561 q 436 406 402 479 q 470 240 470 333 q 409 56 470 125 q 245 -13 348 -13 q 71 59 130 -13 q 13 264 13 131 q 11 304 13 287 q 5 335 10 321 l 5 347 m 152 1048 l 69 1168 l 69 1181 l 196 1181 l 234 1124 l 246 1124 l 284 1181 l 410 1181 l 410 1168 l 328 1048 l 152 1048 z "},"Ş":{"ha":485,"x_min":5,"x_max":476,"o":"m 5 347 l 178 347 q 184 323 183 338 q 186 290 186 307 l 186 197 q 198 150 186 168 q 232 133 211 133 q 280 202 280 133 q 247 319 280 263 q 172 431 213 376 l 135 479 q 66 581 92 535 q 27 674 39 628 q 14 777 14 721 q 75 954 14 885 q 244 1023 136 1023 q 410 952 352 1023 q 468 761 468 881 q 470 721 468 739 q 476 688 471 703 l 476 676 l 306 676 q 298 732 298 697 l 298 817 q 285 862 298 847 q 253 878 273 878 q 218 861 232 878 q 203 807 203 845 q 230 706 203 751 q 298 609 256 662 l 336 561 q 436 406 402 479 q 470 240 470 333 q 409 56 470 125 q 245 -13 348 -13 q 71 59 130 -13 q 13 264 13 131 q 11 304 13 287 q 5 335 10 321 l 5 347 m 211 0 l 277 0 l 277 -63 l 289 -63 q 309 -45 295 -53 q 342 -37 322 -37 q 385 -52 367 -37 q 403 -101 403 -68 q 366 -177 403 -146 q 274 -225 330 -208 q 163 -246 218 -241 l 150 -246 l 150 -158 l 229 -158 q 288 -125 288 -158 q 259 -104 288 -104 l 211 -104 l 211 0 z "},"Ș":{"ha":485,"x_min":5,"x_max":476,"o":"m 5 347 l 178 347 q 184 323 183 338 q 186 290 186 307 l 186 197 q 198 150 186 168 q 232 133 211 133 q 280 202 280 133 q 247 319 280 263 q 172 431 213 376 l 135 479 q 66 581 92 535 q 27 674 39 628 q 14 777 14 721 q 75 954 14 885 q 244 1023 136 1023 q 410 952 352 1023 q 468 761 468 881 q 470 721 468 739 q 476 688 471 703 l 476 676 l 306 676 q 298 732 298 697 l 298 817 q 285 862 298 847 q 253 878 273 878 q 218 861 232 878 q 203 807 203 845 q 230 706 203 751 q 298 609 256 662 l 336 561 q 436 406 402 479 q 470 240 470 333 q 409 56 470 125 q 245 -13 348 -13 q 71 59 130 -13 q 13 264 13 131 q 11 304 13 287 q 5 335 10 321 l 5 347 m 153 -44 l 336 -44 l 336 -158 l 241 -265 l 184 -265 l 184 -253 l 241 -164 l 153 -164 l 153 -44 z "},"T":{"ha":462,"x_min":10,"x_max":452,"o":"m 10 1010 l 452 1010 l 452 846 l 326 846 l 326 0 l 136 0 l 136 846 l 10 846 l 10 1010 z "},"Ŧ":{"ha":462,"x_min":10,"x_max":452,"o":"m 73 556 l 136 556 l 136 846 l 10 846 l 10 1010 l 452 1010 l 452 846 l 326 846 l 326 556 l 389 556 l 389 480 l 326 480 l 326 0 l 136 0 l 136 480 l 73 480 l 73 556 z "},"Ť":{"ha":462,"x_min":10,"x_max":452,"o":"m 10 1010 l 452 1010 l 452 846 l 326 846 l 326 0 l 136 0 l 136 846 l 10 846 l 10 1010 m 143 1048 l 61 1168 l 61 1181 l 187 1181 l 225 1124 l 237 1124 l 275 1181 l 402 1181 l 402 1168 l 319 1048 l 143 1048 z "},"Ţ":{"ha":462,"x_min":10,"x_max":452,"o":"m 10 1010 l 452 1010 l 452 846 l 326 846 l 326 0 l 136 0 l 136 846 l 10 846 l 10 1010 m 198 0 l 264 0 l 264 -63 l 277 -63 q 296 -45 283 -53 q 330 -37 309 -37 q 372 -52 355 -37 q 390 -101 390 -68 q 354 -177 390 -146 q 261 -225 317 -208 q 150 -246 206 -241 l 138 -246 l 138 -158 l 216 -158 q 275 -125 275 -158 q 246 -104 275 -104 l 198 -104 l 198 0 z "},"Ț":{"ha":462,"x_min":10,"x_max":452,"o":"m 10 1010 l 452 1010 l 452 846 l 326 846 l 326 0 l 136 0 l 136 846 l 10 846 l 10 1010 m 140 -44 l 323 -44 l 323 -158 l 229 -265 l 172 -265 l 172 -253 l 229 -164 l 140 -164 l 140 -44 z "},"U":{"ha":518,"x_min":25,"x_max":492,"o":"m 25 1010 l 215 1010 l 215 203 q 259 139 215 139 q 303 203 303 139 l 303 1010 l 492 1010 l 492 253 q 430 59 492 130 q 259 -13 367 -13 q 88 59 150 -13 q 25 253 25 130 l 25 1010 z "},"Ú":{"ha":518,"x_min":25,"x_max":492,"o":"m 25 1010 l 215 1010 l 215 203 q 259 139 215 139 q 303 203 303 139 l 303 1010 l 492 1010 l 492 253 q 430 59 492 130 q 259 -13 367 -13 q 88 59 150 -13 q 25 253 25 130 l 25 1010 m 297 1048 l 170 1048 l 170 1061 l 221 1181 l 391 1181 l 391 1168 l 297 1048 z "},"Û":{"ha":518,"x_min":25,"x_max":492,"o":"m 25 1010 l 215 1010 l 215 203 q 259 139 215 139 q 303 203 303 139 l 303 1010 l 492 1010 l 492 253 q 430 59 492 130 q 259 -13 367 -13 q 88 59 150 -13 q 25 253 25 130 l 25 1010 m 303 1048 l 265 1105 l 253 1105 l 215 1048 l 88 1048 l 88 1061 l 170 1181 l 347 1181 l 429 1061 l 429 1048 l 303 1048 z "},"Ü":{"ha":518,"x_min":25,"x_max":492,"o":"m 25 1010 l 215 1010 l 215 203 q 259 139 215 139 q 303 203 303 139 l 303 1010 l 492 1010 l 492 253 q 430 59 492 130 q 259 -13 367 -13 q 88 59 150 -13 q 25 253 25 130 l 25 1010 m 78 1181 l 236 1181 l 236 1048 l 78 1048 l 78 1181 m 282 1181 l 439 1181 l 439 1048 l 282 1048 l 282 1181 z "},"Ù":{"ha":518,"x_min":25,"x_max":492,"o":"m 25 1010 l 215 1010 l 215 203 q 259 139 215 139 q 303 203 303 139 l 303 1010 l 492 1010 l 492 253 q 430 59 492 130 q 259 -13 367 -13 q 88 59 150 -13 q 25 253 25 130 l 25 1010 m 222 1048 l 128 1168 l 128 1181 l 298 1181 l 348 1061 l 348 1048 l 222 1048 z "},"Ű":{"ha":518,"x_min":25,"x_max":492,"o":"m 25 1010 l 215 1010 l 215 203 q 259 139 215 139 q 303 203 303 139 l 303 1010 l 492 1010 l 492 253 q 430 59 492 130 q 259 -13 367 -13 q 88 59 150 -13 q 25 253 25 130 l 25 1010 m 221 1048 l 107 1048 l 107 1061 l 114 1181 l 268 1181 l 268 1168 l 221 1048 m 402 1048 l 282 1048 l 282 1061 l 301 1181 l 461 1181 l 461 1168 l 402 1048 z "},"Ū":{"ha":518,"x_min":25,"x_max":492,"o":"m 25 1010 l 215 1010 l 215 203 q 259 139 215 139 q 303 203 303 139 l 303 1010 l 492 1010 l 492 253 q 430 59 492 130 q 259 -13 367 -13 q 88 59 150 -13 q 25 253 25 130 l 25 1010 m 92 1155 l 427 1155 l 427 1054 l 92 1054 l 92 1155 z "},"Ų":{"ha":518,"x_min":25,"x_max":492,"o":"m 25 1010 l 215 1010 l 215 203 q 259 139 215 139 q 303 203 303 139 l 303 1010 l 492 1010 l 492 253 q 413 40 492 112 q 339 -54 355 -23 q 323 -111 323 -86 q 380 -158 323 -158 l 408 -158 l 408 -234 l 365 -234 q 261 -210 303 -234 q 218 -136 218 -187 q 237 -75 218 -102 q 284 -24 256 -48 l 284 -11 q 259 -13 271 -13 q 88 59 150 -13 q 25 253 25 130 l 25 1010 z "},"Ů":{"ha":518,"x_min":25,"x_max":492,"o":"m 25 1010 l 215 1010 l 215 203 q 259 139 215 139 q 303 203 303 139 l 303 1010 l 492 1010 l 492 253 q 430 59 492 130 q 259 -13 367 -13 q 88 59 150 -13 q 25 253 25 130 l 25 1010 m 259 1029 q 182 1058 213 1029 q 152 1130 152 1087 q 182 1203 152 1174 q 259 1231 213 1231 q 335 1203 304 1231 q 366 1130 366 1174 q 335 1058 366 1087 q 259 1029 304 1029 m 259 1098 q 282 1107 273 1098 q 290 1130 290 1116 q 282 1153 290 1144 q 259 1162 273 1162 q 237 1153 246 1162 q 227 1130 227 1144 q 237 1107 227 1116 q 259 1098 246 1098 z "},"V":{"ha":480,"x_min":6,"x_max":473,"o":"m 107 0 l 6 997 l 6 1010 l 196 1010 l 234 473 l 246 473 l 284 1010 l 473 1010 l 473 997 l 372 0 l 107 0 z "},"W":{"ha":619,"x_min":13,"x_max":606,"o":"m 246 1010 l 372 1010 l 410 442 l 423 442 l 448 1010 l 606 1010 l 606 997 l 549 0 l 354 0 l 316 442 l 303 442 l 265 0 l 69 0 l 13 997 l 13 1010 l 170 1010 l 196 442 l 208 442 l 246 1010 z "},"Ẃ":{"ha":619,"x_min":13,"x_max":606,"o":"m 246 1010 l 372 1010 l 410 442 l 423 442 l 448 1010 l 606 1010 l 606 997 l 549 0 l 354 0 l 316 442 l 303 442 l 265 0 l 69 0 l 13 997 l 13 1010 l 170 1010 l 196 442 l 208 442 l 246 1010 m 347 1048 l 221 1048 l 221 1061 l 271 1181 l 442 1181 l 442 1168 l 347 1048 z "},"Ŵ":{"ha":619,"x_min":13,"x_max":606,"o":"m 246 1010 l 372 1010 l 410 442 l 423 442 l 448 1010 l 606 1010 l 606 997 l 549 0 l 354 0 l 316 442 l 303 442 l 265 0 l 69 0 l 13 997 l 13 1010 l 170 1010 l 196 442 l 208 442 l 246 1010 m 354 1048 l 316 1105 l 303 1105 l 265 1048 l 139 1048 l 139 1061 l 221 1181 l 398 1181 l 480 1061 l 480 1048 l 354 1048 z "},"Ẅ":{"ha":619,"x_min":13,"x_max":606,"o":"m 246 1010 l 372 1010 l 410 442 l 423 442 l 448 1010 l 606 1010 l 606 997 l 549 0 l 354 0 l 316 442 l 303 442 l 265 0 l 69 0 l 13 997 l 13 1010 l 170 1010 l 196 442 l 208 442 l 246 1010 m 129 1181 l 287 1181 l 287 1048 l 129 1048 l 129 1181 m 332 1181 l 490 1181 l 490 1048 l 332 1048 l 332 1181 z "},"Ẁ":{"ha":619,"x_min":13,"x_max":606,"o":"m 246 1010 l 372 1010 l 410 442 l 423 442 l 448 1010 l 606 1010 l 606 997 l 549 0 l 354 0 l 316 442 l 303 442 l 265 0 l 69 0 l 13 997 l 13 1010 l 170 1010 l 196 442 l 208 442 l 246 1010 m 273 1048 l 178 1168 l 178 1181 l 348 1181 l 399 1061 l 399 1048 l 273 1048 z "},"X":{"ha":492,"x_min":6,"x_max":486,"o":"m 303 1010 l 480 1010 l 480 997 l 410 518 l 410 505 l 486 13 l 486 0 l 303 0 l 253 343 l 240 343 l 189 0 l 6 0 l 6 13 l 82 505 l 82 518 l 13 997 l 13 1010 l 189 1010 l 240 673 l 253 673 l 303 1010 z "},"Y":{"ha":467,"x_min":6,"x_max":461,"o":"m 284 1010 l 461 1010 l 461 997 l 335 360 l 335 0 l 133 0 l 133 360 l 6 997 l 6 1010 l 183 1010 l 227 698 l 240 698 l 284 1010 z "},"Ý":{"ha":467,"x_min":6,"x_max":461,"o":"m 284 1010 l 461 1010 l 461 997 l 335 360 l 335 0 l 133 0 l 133 360 l 6 997 l 6 1010 l 183 1010 l 227 698 l 240 698 l 284 1010 m 271 1048 l 145 1048 l 145 1061 l 196 1181 l 366 1181 l 366 1168 l 271 1048 z "},"Ŷ":{"ha":467,"x_min":6,"x_max":461,"o":"m 284 1010 l 461 1010 l 461 997 l 335 360 l 335 0 l 133 0 l 133 360 l 6 997 l 6 1010 l 183 1010 l 227 698 l 240 698 l 284 1010 m 278 1048 l 240 1105 l 227 1105 l 189 1048 l 63 1048 l 63 1061 l 145 1181 l 322 1181 l 404 1061 l 404 1048 l 278 1048 z "},"Ÿ":{"ha":467,"x_min":6,"x_max":461,"o":"m 284 1010 l 461 1010 l 461 997 l 335 360 l 335 0 l 133 0 l 133 360 l 6 997 l 6 1010 l 183 1010 l 227 698 l 240 698 l 284 1010 m 53 1181 l 211 1181 l 211 1048 l 53 1048 l 53 1181 m 256 1181 l 414 1181 l 414 1048 l 256 1048 l 256 1181 z "},"Ỳ":{"ha":467,"x_min":6,"x_max":461,"o":"m 284 1010 l 461 1010 l 461 997 l 335 360 l 335 0 l 133 0 l 133 360 l 6 997 l 6 1010 l 183 1010 l 227 698 l 240 698 l 284 1010 m 197 1048 l 102 1168 l 102 1181 l 273 1181 l 323 1061 l 323 1048 l 197 1048 z "},"Z":{"ha":486,"x_min":19,"x_max":467,"o":"m 19 0 l 19 145 l 265 852 l 19 852 l 19 1010 l 467 1010 l 467 865 l 221 158 l 467 158 l 467 0 l 19 0 z "},"Ź":{"ha":486,"x_min":19,"x_max":467,"o":"m 19 0 l 19 145 l 265 852 l 19 852 l 19 1010 l 467 1010 l 467 865 l 221 158 l 467 158 l 467 0 l 19 0 m 280 1048 l 154 1048 l 154 1061 l 205 1181 l 375 1181 l 375 1168 l 280 1048 z "},"Ž":{"ha":486,"x_min":19,"x_max":467,"o":"m 19 0 l 19 145 l 265 852 l 19 852 l 19 1010 l 467 1010 l 467 865 l 221 158 l 467 158 l 467 0 l 19 0 m 154 1048 l 72 1168 l 72 1181 l 198 1181 l 236 1124 l 249 1124 l 287 1181 l 413 1181 l 413 1168 l 331 1048 l 154 1048 z "},"Ż":{"ha":486,"x_min":19,"x_max":467,"o":"m 19 0 l 19 145 l 265 852 l 19 852 l 19 1010 l 467 1010 l 467 865 l 221 158 l 467 158 l 467 0 l 19 0 m 145 1181 l 341 1181 l 341 1048 l 145 1048 l 145 1181 z "},"a":{"ha":489,"x_min":28,"x_max":457,"o":"m 28 221 l 28 587 q 71 756 28 692 q 203 821 114 821 q 297 785 265 821 q 337 707 328 750 l 350 707 l 369 808 l 457 808 l 457 0 l 331 0 l 318 88 l 306 88 q 269 19 297 51 q 184 -13 241 -13 q 64 52 100 -13 q 28 221 28 117 m 198 184 q 242 120 198 120 q 287 184 287 120 l 287 624 q 242 688 287 688 q 198 624 198 688 l 198 184 z "},"á":{"ha":489,"x_min":28,"x_max":457,"o":"m 28 221 l 28 587 q 71 756 28 692 q 203 821 114 821 q 297 785 265 821 q 337 707 328 750 l 350 707 l 369 808 l 457 808 l 457 0 l 331 0 l 318 88 l 306 88 q 269 19 297 51 q 184 -13 241 -13 q 64 52 100 -13 q 28 221 28 117 m 198 184 q 242 120 198 120 q 287 184 287 120 l 287 624 q 242 688 287 688 q 198 624 198 688 l 198 184 m 186 865 l 186 878 l 211 1010 l 369 1010 l 369 997 l 299 865 l 186 865 z "},"ă":{"ha":489,"x_min":28,"x_max":457,"o":"m 28 221 l 28 587 q 71 756 28 692 q 203 821 114 821 q 297 785 265 821 q 337 707 328 750 l 350 707 l 369 808 l 457 808 l 457 0 l 331 0 l 318 88 l 306 88 q 269 19 297 51 q 184 -13 241 -13 q 64 52 100 -13 q 28 221 28 117 m 198 184 q 242 120 198 120 q 287 184 287 120 l 287 624 q 242 688 287 688 q 198 624 198 688 l 198 184 m 201 1010 q 255 953 201 953 q 309 1010 309 953 l 404 1010 q 366 895 404 937 q 255 852 327 852 q 145 895 183 852 q 106 1010 106 937 l 201 1010 z "},"â":{"ha":489,"x_min":28,"x_max":457,"o":"m 28 221 l 28 587 q 71 756 28 692 q 203 821 114 821 q 297 785 265 821 q 337 707 328 750 l 350 707 l 369 808 l 457 808 l 457 0 l 331 0 l 318 88 l 306 88 q 269 19 297 51 q 184 -13 241 -13 q 64 52 100 -13 q 28 221 28 117 m 198 184 q 242 120 198 120 q 287 184 287 120 l 287 624 q 242 688 287 688 q 198 624 198 688 l 198 184 m 223 865 l 104 865 l 104 878 l 173 1010 l 337 1010 l 407 878 l 407 865 l 287 865 l 261 934 l 249 934 l 223 865 z "},"ä":{"ha":489,"x_min":28,"x_max":457,"o":"m 28 221 l 28 587 q 71 756 28 692 q 203 821 114 821 q 297 785 265 821 q 337 707 328 750 l 350 707 l 369 808 l 457 808 l 457 0 l 331 0 l 318 88 l 306 88 q 269 19 297 51 q 184 -13 241 -13 q 64 52 100 -13 q 28 221 28 117 m 198 184 q 242 120 198 120 q 287 184 287 120 l 287 624 q 242 688 287 688 q 198 624 198 688 l 198 184 m 85 1010 l 236 1010 l 236 865 l 85 865 l 85 1010 m 274 1010 l 426 1010 l 426 865 l 274 865 l 274 1010 z "},"à":{"ha":489,"x_min":28,"x_max":457,"o":"m 28 221 l 28 587 q 71 756 28 692 q 203 821 114 821 q 297 785 265 821 q 337 707 328 750 l 350 707 l 369 808 l 457 808 l 457 0 l 331 0 l 318 88 l 306 88 q 269 19 297 51 q 184 -13 241 -13 q 64 52 100 -13 q 28 221 28 117 m 198 184 q 242 120 198 120 q 287 184 287 120 l 287 624 q 242 688 287 688 q 198 624 198 688 l 198 184 m 326 865 l 212 865 l 143 997 l 143 1010 l 301 1010 l 326 878 l 326 865 z "},"ā":{"ha":489,"x_min":28,"x_max":457,"o":"m 28 221 l 28 587 q 71 756 28 692 q 203 821 114 821 q 297 785 265 821 q 337 707 328 750 l 350 707 l 369 808 l 457 808 l 457 0 l 331 0 l 318 88 l 306 88 q 269 19 297 51 q 184 -13 241 -13 q 64 52 100 -13 q 28 221 28 117 m 198 184 q 242 120 198 120 q 287 184 287 120 l 287 624 q 242 688 287 688 q 198 624 198 688 l 198 184 m 101 972 l 410 972 l 410 871 l 101 871 l 101 972 z "},"ą":{"ha":489,"x_min":28,"x_max":457,"o":"m 28 221 l 28 587 q 71 756 28 692 q 203 821 114 821 q 297 785 265 821 q 337 707 328 750 l 350 707 l 369 808 l 457 808 l 457 0 l 331 0 l 318 88 l 306 88 q 269 19 297 51 q 184 -13 241 -13 q 64 52 100 -13 q 28 221 28 117 m 198 184 q 242 120 198 120 q 287 184 287 120 l 287 624 q 242 688 287 688 q 198 624 198 688 l 198 184 m 429 0 q 386 -66 400 -40 q 372 -114 372 -91 q 387 -148 372 -138 q 429 -158 402 -158 l 457 -158 l 457 -234 l 414 -234 q 310 -210 352 -234 q 268 -136 268 -187 q 299 -60 268 -92 q 366 0 330 -28 l 429 0 z "},"å":{"ha":489,"x_min":28,"x_max":457,"o":"m 28 221 l 28 587 q 71 756 28 692 q 203 821 114 821 q 297 785 265 821 q 337 707 328 750 l 350 707 l 369 808 l 457 808 l 457 0 l 331 0 l 318 88 l 306 88 q 269 19 297 51 q 184 -13 241 -13 q 64 52 100 -13 q 28 221 28 117 m 198 184 q 242 120 198 120 q 287 184 287 120 l 287 624 q 242 688 287 688 q 198 624 198 688 l 198 184 m 255 840 q 179 869 210 840 q 148 941 148 898 q 179 1013 148 985 q 255 1042 210 1042 q 331 1013 301 1042 q 362 941 362 985 q 331 869 362 898 q 255 840 301 840 m 255 909 q 278 918 269 909 q 287 941 287 927 q 278 963 287 955 q 255 972 269 972 q 233 963 242 972 q 223 941 223 955 q 233 918 223 927 q 255 909 242 909 z "},"ã":{"ha":489,"x_min":28,"x_max":457,"o":"m 28 221 l 28 587 q 71 756 28 692 q 203 821 114 821 q 297 785 265 821 q 337 707 328 750 l 350 707 l 369 808 l 457 808 l 457 0 l 331 0 l 318 88 l 306 88 q 269 19 297 51 q 184 -13 241 -13 q 64 52 100 -13 q 28 221 28 117 m 198 184 q 242 120 198 120 q 287 184 287 120 l 287 624 q 242 688 287 688 q 198 624 198 688 l 198 184 m 318 859 q 268 872 288 859 q 234 901 249 886 q 202 915 220 915 q 174 865 174 915 l 106 865 l 106 905 q 126 984 106 952 q 192 1016 146 1016 q 243 1002 223 1016 q 277 973 263 987 q 308 960 292 960 q 336 1010 336 960 l 404 1010 l 404 970 q 384 891 404 923 q 318 859 364 859 z "},"æ":{"ha":727,"x_min":28,"x_max":710,"o":"m 343 808 l 407 808 l 407 720 l 419 720 q 463 791 432 761 q 548 821 495 821 q 648 787 615 821 q 694 697 682 753 q 706 574 706 641 l 706 385 l 463 385 l 463 172 q 509 107 463 107 q 552 169 552 107 l 552 253 q 559 322 552 299 l 710 322 l 710 309 q 705 282 707 298 q 703 227 703 266 q 670 53 703 119 q 544 -13 636 -13 q 461 16 490 -13 q 419 76 432 44 l 407 76 l 407 0 l 343 0 l 324 76 l 312 76 q 274 16 302 45 q 191 -13 246 -13 q 67 52 106 -13 q 28 221 28 117 l 28 587 q 67 756 28 692 q 191 821 106 821 q 274 792 246 821 q 312 720 302 763 l 324 720 l 343 808 m 463 492 l 552 492 l 552 636 q 508 701 552 701 q 463 636 463 701 l 463 492 m 198 624 l 198 184 q 242 120 198 120 q 287 184 287 120 l 287 624 q 242 688 287 688 q 198 624 198 688 z "},"b":{"ha":489,"x_min":32,"x_max":461,"o":"m 32 1010 l 202 1010 l 202 751 l 215 751 q 316 821 239 821 q 422 767 383 821 q 461 600 461 713 l 461 221 q 418 52 461 117 q 285 -13 375 -13 q 192 23 223 -13 q 152 101 160 58 l 139 101 l 120 0 l 32 0 l 32 1010 m 202 624 l 202 184 q 246 120 202 120 q 290 184 290 120 l 290 624 q 246 688 290 688 q 202 624 202 688 z "},"c":{"ha":460,"x_min":18,"x_max":447,"o":"m 18 492 q 43 661 18 587 q 119 778 68 735 q 245 821 169 821 q 355 790 312 821 q 419 708 398 760 q 441 593 441 657 q 442 557 441 574 q 447 524 443 539 l 447 511 l 290 511 q 284 543 285 525 q 283 581 283 561 l 283 636 q 239 701 283 701 q 194 636 194 701 l 194 172 q 239 107 194 107 q 283 172 283 107 l 283 234 q 284 273 283 255 q 290 303 285 290 l 447 303 l 447 290 q 442 260 443 278 q 441 221 441 242 q 419 105 441 158 q 355 20 398 52 q 245 -13 312 -13 q 119 30 169 -13 q 43 147 68 73 q 18 316 18 221 l 18 492 z "},"ć":{"ha":460,"x_min":18,"x_max":447,"o":"m 18 492 q 43 661 18 587 q 119 778 68 735 q 245 821 169 821 q 355 790 312 821 q 419 708 398 760 q 441 593 441 657 q 442 557 441 574 q 447 524 443 539 l 447 511 l 290 511 q 284 543 285 525 q 283 581 283 561 l 283 636 q 239 701 283 701 q 194 636 194 701 l 194 172 q 239 107 194 107 q 283 172 283 107 l 283 234 q 284 273 283 255 q 290 303 285 290 l 447 303 l 447 290 q 442 260 443 278 q 441 221 441 242 q 419 105 441 158 q 355 20 398 52 q 245 -13 312 -13 q 119 30 169 -13 q 43 147 68 73 q 18 316 18 221 l 18 492 m 169 865 l 169 878 l 194 1010 l 352 1010 l 352 997 l 283 865 l 169 865 z "},"č":{"ha":460,"x_min":18,"x_max":447,"o":"m 18 492 q 43 661 18 587 q 119 778 68 735 q 245 821 169 821 q 355 790 312 821 q 419 708 398 760 q 441 593 441 657 q 442 557 441 574 q 447 524 443 539 l 447 511 l 290 511 q 284 543 285 525 q 283 581 283 561 l 283 636 q 239 701 283 701 q 194 636 194 701 l 194 172 q 239 107 194 107 q 283 172 283 107 l 283 234 q 284 273 283 255 q 290 303 285 290 l 447 303 l 447 290 q 442 260 443 278 q 441 221 441 242 q 419 105 441 158 q 355 20 398 52 q 245 -13 312 -13 q 119 30 169 -13 q 43 147 68 73 q 18 316 18 221 l 18 492 m 157 865 l 87 997 l 87 1010 l 207 1010 l 232 941 l 245 941 l 270 1010 l 390 1010 l 390 997 l 321 865 l 157 865 z "},"ç":{"ha":460,"x_min":18,"x_max":447,"o":"m 18 492 q 43 661 18 587 q 119 778 68 735 q 245 821 169 821 q 355 790 312 821 q 419 708 398 760 q 441 593 441 657 q 442 557 441 574 q 447 524 443 539 l 447 511 l 290 511 q 284 543 285 525 q 283 581 283 561 l 283 636 q 239 701 283 701 q 194 636 194 701 l 194 172 q 239 107 194 107 q 283 172 283 107 l 283 234 q 284 273 283 255 q 290 303 285 290 l 447 303 l 447 290 q 442 260 443 278 q 441 221 441 242 q 419 105 441 158 q 355 20 398 52 q 245 -13 312 -13 q 119 30 169 -13 q 43 147 68 73 q 18 316 18 221 l 18 492 m 210 0 l 275 0 l 275 -63 l 288 -63 q 307 -45 294 -53 q 341 -37 321 -37 q 384 -52 366 -37 q 402 -101 402 -68 q 365 -177 402 -146 q 273 -225 328 -208 q 162 -246 217 -241 l 149 -246 l 149 -158 l 227 -158 q 287 -125 287 -158 q 258 -104 287 -104 l 210 -104 l 210 0 z "},"ċ":{"ha":460,"x_min":18,"x_max":447,"o":"m 18 492 q 43 661 18 587 q 119 778 68 735 q 245 821 169 821 q 355 790 312 821 q 419 708 398 760 q 441 593 441 657 q 442 557 441 574 q 447 524 443 539 l 447 511 l 290 511 q 284 543 285 525 q 283 581 283 561 l 283 636 q 239 701 283 701 q 194 636 194 701 l 194 172 q 239 107 194 107 q 283 172 283 107 l 283 234 q 284 273 283 255 q 290 303 285 290 l 447 303 l 447 290 q 442 260 443 278 q 441 221 441 242 q 419 105 441 158 q 355 20 398 52 q 245 -13 312 -13 q 119 30 169 -13 q 43 147 68 73 q 18 316 18 221 l 18 492 m 148 1010 l 331 1010 l 331 865 l 148 865 l 148 1010 z "},"d":{"ha":489,"x_min":28,"x_max":457,"o":"m 457 0 l 331 0 l 318 88 l 306 88 q 269 19 297 51 q 184 -13 241 -13 q 64 52 100 -13 q 28 221 28 117 l 28 600 q 68 767 28 713 q 173 821 107 821 q 274 751 250 821 l 287 751 l 287 1010 l 457 1010 l 457 0 m 198 184 q 242 120 198 120 q 287 184 287 120 l 287 624 q 242 688 287 688 q 198 624 198 688 l 198 184 z "},"ð":{"ha":477,"x_min":18,"x_max":460,"o":"m 131 855 l 225 894 q 192 945 210 919 q 154 997 174 971 l 154 1010 l 293 1010 q 316 980 303 996 q 342 942 328 963 l 447 985 l 460 985 l 460 903 l 380 870 q 436 698 412 802 q 460 442 460 595 l 460 316 q 436 147 460 221 q 364 30 413 73 q 239 -13 314 -13 q 114 30 163 -13 q 41 147 64 73 q 18 316 18 221 l 18 442 q 64 655 18 585 q 188 726 111 726 q 253 710 231 726 q 283 676 275 693 l 295 676 q 261 821 290 749 l 144 773 l 131 773 l 131 855 m 194 529 l 194 172 q 239 107 194 107 q 283 172 283 107 l 283 529 q 239 593 283 593 q 194 529 194 593 z "},"ď":{"ha":590,"x_min":28,"x_max":640,"o":"m 508 1010 l 640 1010 l 640 997 l 571 745 l 508 745 l 508 1010 m 457 0 l 331 0 l 318 88 l 306 88 q 269 19 297 51 q 184 -13 241 -13 q 64 52 100 -13 q 28 221 28 117 l 28 600 q 68 767 28 713 q 173 821 107 821 q 274 751 250 821 l 287 751 l 287 1010 l 457 1010 l 457 0 m 198 184 q 242 120 198 120 q 287 184 287 120 l 287 624 q 242 688 287 688 q 198 624 198 688 l 198 184 z "},"đ":{"ha":521,"x_min":28,"x_max":521,"o":"m 457 0 l 331 0 l 318 88 l 306 88 q 269 19 297 51 q 184 -13 241 -13 q 64 52 100 -13 q 28 221 28 117 l 28 600 q 68 767 28 713 q 173 821 107 821 q 274 751 250 821 l 287 751 l 287 865 l 187 865 l 187 928 l 287 928 l 287 1010 l 457 1010 l 457 928 l 521 928 l 521 865 l 457 865 l 457 0 m 198 184 q 242 120 198 120 q 287 184 287 120 l 287 624 q 242 688 287 688 q 198 624 198 688 l 198 184 z "},"e":{"ha":457,"x_min":18,"x_max":439,"o":"m 18 303 l 18 492 q 41 661 18 587 q 114 778 64 735 q 239 821 163 821 q 354 787 311 821 q 417 697 398 753 q 437 574 437 641 l 437 398 l 194 398 l 194 172 q 240 107 194 107 q 283 169 283 107 l 283 253 q 290 322 283 299 l 439 322 l 439 309 q 436 282 438 298 q 434 227 434 266 q 384 53 434 119 q 235 -13 335 -13 q 76 72 134 -13 q 18 303 18 157 m 194 505 l 283 505 l 283 636 q 239 701 283 701 q 194 636 194 701 l 194 505 z "},"é":{"ha":457,"x_min":18,"x_max":439,"o":"m 18 303 l 18 492 q 41 661 18 587 q 114 778 64 735 q 239 821 163 821 q 354 787 311 821 q 417 697 398 753 q 437 574 437 641 l 437 398 l 194 398 l 194 172 q 240 107 194 107 q 283 169 283 107 l 283 253 q 290 322 283 299 l 439 322 l 439 309 q 436 282 438 298 q 434 227 434 266 q 384 53 434 119 q 235 -13 335 -13 q 76 72 134 -13 q 18 303 18 157 m 194 505 l 283 505 l 283 636 q 239 701 283 701 q 194 636 194 701 l 194 505 m 169 865 l 169 878 l 194 1010 l 352 1010 l 352 997 l 283 865 l 169 865 z "},"ě":{"ha":457,"x_min":18,"x_max":439,"o":"m 18 303 l 18 492 q 41 661 18 587 q 114 778 64 735 q 239 821 163 821 q 354 787 311 821 q 417 697 398 753 q 437 574 437 641 l 437 398 l 194 398 l 194 172 q 240 107 194 107 q 283 169 283 107 l 283 253 q 290 322 283 299 l 439 322 l 439 309 q 436 282 438 298 q 434 227 434 266 q 384 53 434 119 q 235 -13 335 -13 q 76 72 134 -13 q 18 303 18 157 m 194 505 l 283 505 l 283 636 q 239 701 283 701 q 194 636 194 701 l 194 505 m 157 865 l 87 997 l 87 1010 l 207 1010 l 232 941 l 245 941 l 270 1010 l 390 1010 l 390 997 l 321 865 l 157 865 z "},"ê":{"ha":457,"x_min":18,"x_max":439,"o":"m 18 303 l 18 492 q 41 661 18 587 q 114 778 64 735 q 239 821 163 821 q 354 787 311 821 q 417 697 398 753 q 437 574 437 641 l 437 398 l 194 398 l 194 172 q 240 107 194 107 q 283 169 283 107 l 283 253 q 290 322 283 299 l 439 322 l 439 309 q 436 282 438 298 q 434 227 434 266 q 384 53 434 119 q 235 -13 335 -13 q 76 72 134 -13 q 18 303 18 157 m 194 505 l 283 505 l 283 636 q 239 701 283 701 q 194 636 194 701 l 194 505 m 207 865 l 87 865 l 87 878 l 157 1010 l 321 1010 l 390 878 l 390 865 l 270 865 l 245 934 l 232 934 l 207 865 z "},"ë":{"ha":457,"x_min":18,"x_max":439,"o":"m 18 303 l 18 492 q 41 661 18 587 q 114 778 64 735 q 239 821 163 821 q 354 787 311 821 q 417 697 398 753 q 437 574 437 641 l 437 398 l 194 398 l 194 172 q 240 107 194 107 q 283 169 283 107 l 283 253 q 290 322 283 299 l 439 322 l 439 309 q 436 282 438 298 q 434 227 434 266 q 384 53 434 119 q 235 -13 335 -13 q 76 72 134 -13 q 18 303 18 157 m 194 505 l 283 505 l 283 636 q 239 701 283 701 q 194 636 194 701 l 194 505 m 68 1010 l 220 1010 l 220 865 l 68 865 l 68 1010 m 258 1010 l 409 1010 l 409 865 l 258 865 l 258 1010 z "},"ė":{"ha":457,"x_min":18,"x_max":439,"o":"m 18 303 l 18 492 q 41 661 18 587 q 114 778 64 735 q 239 821 163 821 q 354 787 311 821 q 417 697 398 753 q 437 574 437 641 l 437 398 l 194 398 l 194 172 q 240 107 194 107 q 283 169 283 107 l 283 253 q 290 322 283 299 l 439 322 l 439 309 q 436 282 438 298 q 434 227 434 266 q 384 53 434 119 q 235 -13 335 -13 q 76 72 134 -13 q 18 303 18 157 m 194 505 l 283 505 l 283 636 q 239 701 283 701 q 194 636 194 701 l 194 505 m 148 1010 l 331 1010 l 331 865 l 148 865 l 148 1010 z "},"è":{"ha":457,"x_min":18,"x_max":439,"o":"m 18 303 l 18 492 q 41 661 18 587 q 114 778 64 735 q 239 821 163 821 q 354 787 311 821 q 417 697 398 753 q 437 574 437 641 l 437 398 l 194 398 l 194 172 q 240 107 194 107 q 283 169 283 107 l 283 253 q 290 322 283 299 l 439 322 l 439 309 q 436 282 438 298 q 434 227 434 266 q 384 53 434 119 q 235 -13 335 -13 q 76 72 134 -13 q 18 303 18 157 m 194 505 l 283 505 l 283 636 q 239 701 283 701 q 194 636 194 701 l 194 505 m 309 865 l 196 865 l 126 997 l 126 1010 l 284 1010 l 309 878 l 309 865 z "},"ē":{"ha":457,"x_min":18,"x_max":439,"o":"m 18 303 l 18 492 q 41 661 18 587 q 114 778 64 735 q 239 821 163 821 q 354 787 311 821 q 417 697 398 753 q 437 574 437 641 l 437 398 l 194 398 l 194 172 q 240 107 194 107 q 283 169 283 107 l 283 253 q 290 322 283 299 l 439 322 l 439 309 q 436 282 438 298 q 434 227 434 266 q 384 53 434 119 q 235 -13 335 -13 q 76 72 134 -13 q 18 303 18 157 m 194 505 l 283 505 l 283 636 q 239 701 283 701 q 194 636 194 701 l 194 505 m 85 972 l 394 972 l 394 871 l 85 871 l 85 972 z "},"ę":{"ha":457,"x_min":18,"x_max":439,"o":"m 18 303 l 18 492 q 41 661 18 587 q 114 778 64 735 q 239 821 163 821 q 354 787 311 821 q 417 697 398 753 q 437 574 437 641 l 437 398 l 194 398 l 194 172 q 240 107 194 107 q 283 169 283 107 l 283 253 q 290 322 283 299 l 439 322 l 439 309 q 436 282 438 298 q 434 227 434 266 q 380 48 434 111 q 326 -28 343 -1 q 304 -74 309 -56 q 299 -111 299 -92 q 356 -158 299 -158 l 384 -158 l 384 -234 l 341 -234 q 237 -210 279 -234 q 194 -136 194 -187 q 213 -75 194 -102 q 260 -24 232 -48 l 260 -11 q 235 -13 247 -13 q 76 72 134 -13 q 18 303 18 157 m 194 505 l 283 505 l 283 636 q 239 701 283 701 q 194 636 194 701 l 194 505 z "},"f":{"ha":367,"x_min":10,"x_max":357,"o":"m 10 808 l 98 808 l 98 846 q 119 949 98 913 q 173 1001 140 986 q 244 1016 206 1016 q 311 1008 284 1016 q 351 991 337 999 l 338 903 l 313 903 q 279 892 289 903 q 269 852 269 881 l 269 808 l 357 808 l 357 701 l 269 701 l 269 0 l 98 0 l 98 701 l 10 701 l 10 808 z "},"g":{"ha":479,"x_min":18,"x_max":447,"o":"m 447 808 l 447 38 q 394 -135 447 -68 q 241 -202 341 -202 q 125 -173 170 -202 q 58 -96 80 -144 q 37 8 37 -48 q 35 29 37 18 q 32 51 34 40 l 32 63 l 182 63 q 188 3 188 45 l 188 -28 q 234 -88 188 -88 q 277 -27 277 -88 l 277 177 l 264 177 q 163 107 240 107 q 57 161 97 107 q 18 328 18 215 l 18 587 q 61 756 18 692 q 193 821 104 821 q 287 785 255 821 q 327 707 318 750 l 340 707 l 359 808 l 447 808 m 188 304 q 232 240 188 240 q 277 304 277 240 l 277 624 q 232 688 277 688 q 188 624 188 688 l 188 304 z "},"ğ":{"ha":479,"x_min":18,"x_max":447,"o":"m 447 808 l 447 38 q 394 -135 447 -68 q 241 -202 341 -202 q 125 -173 170 -202 q 58 -96 80 -144 q 37 8 37 -48 q 35 29 37 18 q 32 51 34 40 l 32 63 l 182 63 q 188 3 188 45 l 188 -28 q 234 -88 188 -88 q 277 -27 277 -88 l 277 177 l 264 177 q 163 107 240 107 q 57 161 97 107 q 18 328 18 215 l 18 587 q 61 756 18 692 q 193 821 104 821 q 287 785 255 821 q 327 707 318 750 l 340 707 l 359 808 l 447 808 m 188 304 q 232 240 188 240 q 277 304 277 240 l 277 624 q 232 688 277 688 q 188 624 188 688 l 188 304 m 186 1010 q 240 953 186 953 q 294 1010 294 953 l 389 1010 q 350 895 389 937 q 240 852 312 852 q 129 895 168 852 q 91 1010 91 937 l 186 1010 z "},"ģ":{"ha":479,"x_min":18,"x_max":447,"o":"m 447 808 l 447 38 q 394 -135 447 -68 q 241 -202 341 -202 q 125 -173 170 -202 q 58 -96 80 -144 q 37 8 37 -48 q 35 29 37 18 q 32 51 34 40 l 32 63 l 182 63 q 188 3 188 45 l 188 -28 q 234 -88 188 -88 q 277 -27 277 -88 l 277 177 l 264 177 q 163 107 240 107 q 57 161 97 107 q 18 328 18 215 l 18 587 q 61 756 18 692 q 193 821 104 821 q 287 785 255 821 q 327 707 318 750 l 340 707 l 359 808 l 447 808 m 188 304 q 232 240 188 240 q 277 304 277 240 l 277 624 q 232 688 277 688 q 188 624 188 688 l 188 304 m 332 865 l 149 865 l 149 979 l 244 1086 l 301 1086 l 301 1073 l 244 985 l 332 985 l 332 865 z "},"ġ":{"ha":479,"x_min":18,"x_max":447,"o":"m 447 808 l 447 38 q 394 -135 447 -68 q 241 -202 341 -202 q 125 -173 170 -202 q 58 -96 80 -144 q 37 8 37 -48 q 35 29 37 18 q 32 51 34 40 l 32 63 l 182 63 q 188 3 188 45 l 188 -28 q 234 -88 188 -88 q 277 -27 277 -88 l 277 177 l 264 177 q 163 107 240 107 q 57 161 97 107 q 18 328 18 215 l 18 587 q 61 756 18 692 q 193 821 104 821 q 287 785 255 821 q 327 707 318 750 l 340 707 l 359 808 l 447 808 m 188 304 q 232 240 188 240 q 277 304 277 240 l 277 624 q 232 688 277 688 q 188 624 188 688 l 188 304 m 149 1010 l 332 1010 l 332 865 l 149 865 l 149 1010 z "},"h":{"ha":489,"x_min":32,"x_max":461,"o":"m 32 1010 l 202 1010 l 202 745 l 215 745 q 259 798 231 782 q 327 814 287 814 q 431 761 400 814 q 461 612 461 707 l 461 0 l 290 0 l 290 624 q 246 688 290 688 q 202 624 202 688 l 202 0 l 32 0 l 32 1010 z "},"ħ":{"ha":520,"x_min":0,"x_max":492,"o":"m 0 928 l 63 928 l 63 1010 l 234 1010 l 234 928 l 335 928 l 335 865 l 234 865 l 234 745 l 246 745 q 290 798 263 782 q 359 814 318 814 q 462 761 432 814 q 492 612 492 707 l 492 0 l 322 0 l 322 624 q 278 688 322 688 q 234 624 234 688 l 234 0 l 63 0 l 63 865 l 0 865 l 0 928 z "},"i":{"ha":234,"x_min":25,"x_max":208,"o":"m 32 808 l 202 808 l 202 0 l 32 0 l 32 808 m 25 1010 l 208 1010 l 208 865 l 25 865 l 25 1010 z "},"ı":{"ha":234,"x_min":32,"x_max":202,"o":"m 32 808 l 202 808 l 202 0 l 32 0 l 32 808 z "},"í":{"ha":234,"x_min":32,"x_max":230,"o":"m 32 808 l 202 808 l 202 0 l 32 0 l 32 808 m 47 865 l 47 878 l 72 1010 l 230 1010 l 230 997 l 160 865 l 47 865 z "},"î":{"ha":234,"x_min":-35,"x_max":268,"o":"m 32 808 l 202 808 l 202 0 l 32 0 l 32 808 m 85 865 l -35 865 l -35 878 l 34 1010 l 198 1010 l 268 878 l 268 865 l 148 865 l 122 934 l 110 934 l 85 865 z "},"ï":{"ha":234,"x_min":-54,"x_max":287,"o":"m 32 808 l 202 808 l 202 0 l 32 0 l 32 808 m -54 1010 l 97 1010 l 97 865 l -54 865 l -54 1010 m 135 1010 l 287 1010 l 287 865 l 135 865 l 135 1010 z "},"ì":{"ha":234,"x_min":4,"x_max":202,"o":"m 32 808 l 202 808 l 202 0 l 32 0 l 32 808 m 187 865 l 73 865 l 4 997 l 4 1010 l 162 1010 l 187 878 l 187 865 z "},"ī":{"ha":234,"x_min":-38,"x_max":271,"o":"m 32 808 l 202 808 l 202 0 l 32 0 l 32 808 m -38 972 l 271 972 l 271 871 l -38 871 l -38 972 z "},"į":{"ha":234,"x_min":13,"x_max":208,"o":"m 32 808 l 202 808 l 202 0 l 32 0 l 32 808 m 25 1010 l 208 1010 l 208 865 l 25 865 l 25 1010 m 174 0 q 131 -66 145 -40 q 117 -114 117 -91 q 132 -148 117 -138 q 174 -158 146 -158 l 202 -158 l 202 -234 l 159 -234 q 55 -210 97 -234 q 13 -136 13 -187 q 44 -60 13 -92 q 111 0 74 -28 l 174 0 z "},"j":{"ha":234,"x_min":-48,"x_max":208,"o":"m 202 808 l 202 -25 q 181 -128 202 -91 q 128 -181 160 -165 q 57 -196 95 -196 q -8 -189 19 -196 q -48 -177 -34 -182 l -38 -76 l -13 -76 q 21 -64 11 -76 q 32 -25 32 -53 l 32 808 l 202 808 m 25 1010 l 208 1010 l 208 865 l 25 865 l 25 1010 z "},"ȷ":{"ha":234,"x_min":-48,"x_max":202,"o":"m 202 808 l 202 -25 q 181 -128 202 -91 q 128 -181 160 -165 q 57 -196 95 -196 q -8 -189 19 -196 q -48 -177 -34 -182 l -38 -76 l -13 -76 q 21 -64 11 -76 q 32 -25 32 -53 l 32 808 l 202 808 z "},"k":{"ha":463,"x_min":32,"x_max":457,"o":"m 32 1010 l 202 1010 l 202 509 l 215 509 l 306 808 l 457 808 l 457 795 l 356 417 l 356 404 l 457 13 l 457 0 l 306 0 l 215 306 l 202 306 l 202 0 l 32 0 l 32 1010 z "},"ķ":{"ha":463,"x_min":32,"x_max":457,"o":"m 32 1010 l 202 1010 l 202 509 l 215 509 l 306 808 l 457 808 l 457 795 l 356 417 l 356 404 l 457 13 l 457 0 l 306 0 l 215 306 l 202 306 l 202 0 l 32 0 l 32 1010 m 163 -44 l 346 -44 l 346 -158 l 251 -265 l 194 -265 l 194 -253 l 251 -164 l 163 -164 l 163 -44 z "},"l":{"ha":234,"x_min":32,"x_max":202,"o":"m 32 1010 l 202 1010 l 202 0 l 32 0 l 32 1010 z "},"ĺ":{"ha":234,"x_min":28,"x_max":249,"o":"m 32 1010 l 202 1010 l 202 0 l 32 0 l 32 1010 m 154 1048 l 28 1048 l 28 1061 l 78 1181 l 249 1181 l 249 1168 l 154 1048 z "},"ľ":{"ha":335,"x_min":32,"x_max":385,"o":"m 253 1010 l 385 1010 l 385 997 l 316 745 l 253 745 l 253 1010 m 32 1010 l 202 1010 l 202 0 l 32 0 l 32 1010 z "},"ļ":{"ha":234,"x_min":25,"x_max":208,"o":"m 32 1010 l 202 1010 l 202 0 l 32 0 l 32 1010 m 25 -44 l 208 -44 l 208 -158 l 114 -265 l 57 -265 l 57 -253 l 114 -164 l 25 -164 l 25 -44 z "},"ł":{"ha":347,"x_min":0,"x_max":347,"o":"m 0 414 l 76 438 l 76 1010 l 246 1010 l 246 492 l 335 520 l 347 520 l 347 455 l 246 423 l 246 0 l 76 0 l 76 369 l 13 348 l 0 348 l 0 414 z "},"m":{"ha":747,"x_min":32,"x_max":720,"o":"m 32 808 l 139 808 l 152 707 l 164 707 q 211 787 179 759 q 299 814 242 814 q 389 783 359 814 q 424 713 419 751 l 437 713 q 574 814 466 814 q 688 757 657 814 q 720 600 720 699 l 720 0 l 549 0 l 549 624 q 505 688 549 688 q 461 624 461 688 l 461 0 l 290 0 l 290 624 q 246 688 290 688 q 202 624 202 688 l 202 0 l 32 0 l 32 808 z "},"n":{"ha":489,"x_min":32,"x_max":461,"o":"m 32 808 l 145 808 l 158 707 l 170 707 q 314 814 203 814 q 424 761 388 814 q 461 617 461 708 l 461 0 l 290 0 l 290 624 q 247 688 290 688 q 202 624 202 688 l 202 0 l 32 0 l 32 808 z "},"ń":{"ha":489,"x_min":32,"x_max":461,"o":"m 32 808 l 145 808 l 158 707 l 170 707 q 314 814 203 814 q 424 761 388 814 q 461 617 461 708 l 461 0 l 290 0 l 290 624 q 247 688 290 688 q 202 624 202 688 l 202 0 l 32 0 l 32 808 m 174 865 l 174 878 l 199 1010 l 357 1010 l 357 997 l 288 865 l 174 865 z "},"ň":{"ha":489,"x_min":32,"x_max":461,"o":"m 32 808 l 145 808 l 158 707 l 170 707 q 314 814 203 814 q 424 761 388 814 q 461 617 461 708 l 461 0 l 290 0 l 290 624 q 247 688 290 688 q 202 624 202 688 l 202 0 l 32 0 l 32 808 m 162 865 l 92 997 l 92 1010 l 212 1010 l 237 941 l 250 941 l 275 1010 l 395 1010 l 395 997 l 326 865 l 162 865 z "},"ņ":{"ha":489,"x_min":32,"x_max":461,"o":"m 32 808 l 145 808 l 158 707 l 170 707 q 314 814 203 814 q 424 761 388 814 q 461 617 461 708 l 461 0 l 290 0 l 290 624 q 247 688 290 688 q 202 624 202 688 l 202 0 l 32 0 l 32 808 m 155 -44 l 338 -44 l 338 -158 l 244 -265 l 187 -265 l 187 -253 l 244 -164 l 155 -164 l 155 -44 z "},"ŋ":{"ha":489,"x_min":32,"x_max":461,"o":"m 32 808 l 145 808 l 158 707 l 170 707 q 314 814 203 814 q 424 761 388 814 q 461 617 461 708 l 461 -25 q 440 -128 461 -91 q 386 -181 419 -165 q 316 -196 354 -196 q 251 -189 278 -196 q 211 -177 225 -182 l 221 -76 l 246 -76 q 280 -64 270 -76 q 290 -25 290 -53 l 290 624 q 247 688 290 688 q 202 624 202 688 l 202 0 l 32 0 l 32 808 z "},"ñ":{"ha":489,"x_min":32,"x_max":461,"o":"m 32 808 l 145 808 l 158 707 l 170 707 q 314 814 203 814 q 424 761 388 814 q 461 617 461 708 l 461 0 l 290 0 l 290 624 q 247 688 290 688 q 202 624 202 688 l 202 0 l 32 0 l 32 808 m 307 859 q 257 872 277 859 q 223 901 237 886 q 191 915 208 915 q 163 865 163 915 l 95 865 l 95 905 q 115 984 95 952 q 181 1016 135 1016 q 232 1002 212 1016 q 266 973 251 987 q 297 960 280 960 q 324 1010 324 960 l 393 1010 l 393 970 q 372 891 393 923 q 307 859 352 859 z "},"o":{"ha":477,"x_min":18,"x_max":460,"o":"m 18 492 q 41 661 18 587 q 114 778 64 735 q 239 821 163 821 q 364 778 314 821 q 436 661 413 735 q 460 492 460 587 l 460 316 q 436 147 460 221 q 364 30 413 73 q 239 -13 314 -13 q 114 30 163 -13 q 41 147 64 73 q 18 316 18 221 l 18 492 m 194 636 l 194 172 q 239 107 194 107 q 283 172 283 107 l 283 636 q 239 701 283 701 q 194 636 194 701 z "},"ó":{"ha":477,"x_min":18,"x_max":460,"o":"m 18 492 q 41 661 18 587 q 114 778 64 735 q 239 821 163 821 q 364 778 314 821 q 436 661 413 735 q 460 492 460 587 l 460 316 q 436 147 460 221 q 364 30 413 73 q 239 -13 314 -13 q 114 30 163 -13 q 41 147 64 73 q 18 316 18 221 l 18 492 m 194 636 l 194 172 q 239 107 194 107 q 283 172 283 107 l 283 636 q 239 701 283 701 q 194 636 194 701 m 169 865 l 169 878 l 194 1010 l 352 1010 l 352 997 l 283 865 l 169 865 z "},"ô":{"ha":477,"x_min":18,"x_max":460,"o":"m 18 492 q 41 661 18 587 q 114 778 64 735 q 239 821 163 821 q 364 778 314 821 q 436 661 413 735 q 460 492 460 587 l 460 316 q 436 147 460 221 q 364 30 413 73 q 239 -13 314 -13 q 114 30 163 -13 q 41 147 64 73 q 18 316 18 221 l 18 492 m 194 636 l 194 172 q 239 107 194 107 q 283 172 283 107 l 283 636 q 239 701 283 701 q 194 636 194 701 m 207 865 l 87 865 l 87 878 l 157 1010 l 321 1010 l 390 878 l 390 865 l 270 865 l 245 934 l 232 934 l 207 865 z "},"ö":{"ha":477,"x_min":18,"x_max":460,"o":"m 18 492 q 41 661 18 587 q 114 778 64 735 q 239 821 163 821 q 364 778 314 821 q 436 661 413 735 q 460 492 460 587 l 460 316 q 436 147 460 221 q 364 30 413 73 q 239 -13 314 -13 q 114 30 163 -13 q 41 147 64 73 q 18 316 18 221 l 18 492 m 194 636 l 194 172 q 239 107 194 107 q 283 172 283 107 l 283 636 q 239 701 283 701 q 194 636 194 701 m 68 1010 l 220 1010 l 220 865 l 68 865 l 68 1010 m 258 1010 l 409 1010 l 409 865 l 258 865 l 258 1010 z "},"ò":{"ha":477,"x_min":18,"x_max":460,"o":"m 18 492 q 41 661 18 587 q 114 778 64 735 q 239 821 163 821 q 364 778 314 821 q 436 661 413 735 q 460 492 460 587 l 460 316 q 436 147 460 221 q 364 30 413 73 q 239 -13 314 -13 q 114 30 163 -13 q 41 147 64 73 q 18 316 18 221 l 18 492 m 194 636 l 194 172 q 239 107 194 107 q 283 172 283 107 l 283 636 q 239 701 283 701 q 194 636 194 701 m 309 865 l 196 865 l 126 997 l 126 1010 l 284 1010 l 309 878 l 309 865 z "},"ő":{"ha":477,"x_min":18,"x_max":460,"o":"m 18 492 q 41 661 18 587 q 114 778 64 735 q 239 821 163 821 q 364 778 314 821 q 436 661 413 735 q 460 492 460 587 l 460 316 q 436 147 460 221 q 364 30 413 73 q 239 -13 314 -13 q 114 30 163 -13 q 41 147 64 73 q 18 316 18 221 l 18 492 m 194 636 l 194 172 q 239 107 194 107 q 283 172 283 107 l 283 636 q 239 701 283 701 q 194 636 194 701 m 97 865 l 97 878 l 104 1010 l 245 1010 l 245 997 l 198 865 l 97 865 m 255 865 l 255 878 l 274 1010 l 422 1010 l 422 997 l 362 865 l 255 865 z "},"ō":{"ha":477,"x_min":18,"x_max":460,"o":"m 18 492 q 41 661 18 587 q 114 778 64 735 q 239 821 163 821 q 364 778 314 821 q 436 661 413 735 q 460 492 460 587 l 460 316 q 436 147 460 221 q 364 30 413 73 q 239 -13 314 -13 q 114 30 163 -13 q 41 147 64 73 q 18 316 18 221 l 18 492 m 194 636 l 194 172 q 239 107 194 107 q 283 172 283 107 l 283 636 q 239 701 283 701 q 194 636 194 701 m 85 972 l 394 972 l 394 871 l 85 871 l 85 972 z "},"ø":{"ha":477,"x_min":18,"x_max":460,"o":"m 18 492 q 41 661 18 587 q 114 778 64 735 q 239 821 163 821 q 371 770 318 821 l 389 808 l 457 808 l 457 795 l 417 708 q 449 610 438 665 q 460 492 460 556 l 460 316 q 436 147 460 221 q 364 30 413 73 q 239 -13 314 -13 q 106 38 159 -13 l 88 0 l 20 0 l 20 13 l 61 100 q 28 198 39 143 q 18 316 18 253 l 18 492 m 194 391 l 207 391 l 283 581 l 283 636 q 239 701 283 701 q 194 636 194 701 l 194 391 m 239 107 q 283 172 283 107 l 283 417 l 270 417 l 196 227 l 194 225 l 194 172 q 239 107 194 107 z "},"õ":{"ha":477,"x_min":18,"x_max":460,"o":"m 18 492 q 41 661 18 587 q 114 778 64 735 q 239 821 163 821 q 364 778 314 821 q 436 661 413 735 q 460 492 460 587 l 460 316 q 436 147 460 221 q 364 30 413 73 q 239 -13 314 -13 q 114 30 163 -13 q 41 147 64 73 q 18 316 18 221 l 18 492 m 194 636 l 194 172 q 239 107 194 107 q 283 172 283 107 l 283 636 q 239 701 283 701 q 194 636 194 701 m 302 859 q 252 872 271 859 q 218 901 232 886 q 186 915 203 915 q 158 865 158 915 l 90 865 l 90 905 q 110 984 90 952 q 176 1016 130 1016 q 227 1002 207 1016 q 261 973 246 987 q 292 960 275 960 q 319 1010 319 960 l 388 1010 l 388 970 q 367 891 388 923 q 302 859 347 859 z "},"œ":{"ha":723,"x_min":18,"x_max":706,"o":"m 18 492 q 40 661 18 587 q 107 778 62 735 q 221 821 152 821 q 318 794 284 821 q 369 720 352 766 l 381 720 q 432 794 399 768 q 524 821 466 821 q 631 787 592 821 q 686 697 669 753 q 702 574 702 641 l 702 385 l 460 385 l 460 172 q 505 107 460 107 q 548 169 548 107 l 548 253 q 556 322 548 299 l 706 322 l 706 309 q 701 282 703 298 q 699 227 699 266 q 657 53 699 119 q 520 -13 614 -13 q 431 16 466 -13 q 381 95 396 44 l 369 95 q 318 17 352 47 q 221 -13 284 -13 q 107 30 152 -13 q 40 147 62 73 q 18 316 18 221 l 18 492 m 194 172 q 239 107 194 107 q 283 172 283 107 l 283 636 q 239 701 283 701 q 194 636 194 701 l 194 172 m 460 492 l 548 492 l 548 636 q 504 701 548 701 q 460 636 460 701 l 460 492 z "},"p":{"ha":489,"x_min":32,"x_max":461,"o":"m 32 808 l 158 808 l 170 720 l 183 720 q 220 789 192 758 q 304 821 247 821 q 426 756 390 821 q 461 587 461 692 l 461 208 q 422 41 461 95 q 316 -13 383 -13 q 215 57 239 -13 l 202 57 l 202 -189 l 32 -189 l 32 808 m 202 184 q 246 120 202 120 q 290 184 290 120 l 290 624 q 246 688 290 688 q 202 624 202 688 l 202 184 z "},"þ":{"ha":479,"x_min":32,"x_max":461,"o":"m 32 1010 l 202 1010 l 202 751 l 215 751 q 316 821 239 821 q 422 767 383 821 q 461 600 461 713 l 461 208 q 422 41 461 95 q 316 -13 383 -13 q 215 57 239 -13 l 202 57 l 202 -189 l 32 -189 l 32 1010 m 202 184 q 246 120 202 120 q 290 184 290 120 l 290 624 q 246 688 290 688 q 202 624 202 688 l 202 184 z "},"q":{"ha":489,"x_min":28,"x_max":457,"o":"m 457 808 l 457 -189 l 287 -189 l 287 57 l 274 57 q 173 -13 250 -13 q 68 41 107 -13 q 28 208 28 95 l 28 587 q 71 756 28 692 q 203 821 114 821 q 297 785 265 821 q 337 707 328 750 l 350 707 l 369 808 l 457 808 m 198 184 q 242 120 198 120 q 287 184 287 120 l 287 624 q 242 688 287 688 q 198 624 198 688 l 198 184 z "},"r":{"ha":323,"x_min":32,"x_max":316,"o":"m 32 808 l 152 808 l 164 701 l 177 701 q 205 780 183 749 q 279 811 227 811 l 316 811 l 316 653 l 284 653 q 222 631 242 653 q 202 554 202 610 l 202 0 l 32 0 l 32 808 z "},"ŕ":{"ha":323,"x_min":32,"x_max":316,"o":"m 32 808 l 152 808 l 164 701 l 177 701 q 205 780 183 749 q 279 811 227 811 l 316 811 l 316 653 l 284 653 q 222 631 242 653 q 202 554 202 610 l 202 0 l 32 0 l 32 808 m 105 865 l 105 878 l 130 1010 l 288 1010 l 288 997 l 218 865 l 105 865 z "},"ř":{"ha":323,"x_min":23,"x_max":326,"o":"m 32 808 l 152 808 l 164 701 l 177 701 q 205 780 183 749 q 279 811 227 811 l 316 811 l 316 653 l 284 653 q 222 631 242 653 q 202 554 202 610 l 202 0 l 32 0 l 32 808 m 92 865 l 23 997 l 23 1010 l 143 1010 l 168 941 l 181 941 l 206 1010 l 326 1010 l 326 997 l 256 865 l 92 865 z "},"ŗ":{"ha":323,"x_min":25,"x_max":316,"o":"m 32 808 l 152 808 l 164 701 l 177 701 q 205 780 183 749 q 279 811 227 811 l 316 811 l 316 653 l 284 653 q 222 631 242 653 q 202 554 202 610 l 202 0 l 32 0 l 32 808 m 25 -44 l 208 -44 l 208 -158 l 114 -265 l 57 -265 l 57 -253 l 114 -164 l 25 -164 l 25 -44 z "},"s":{"ha":437,"x_min":10,"x_max":424,"o":"m 218 821 q 364 767 308 821 q 419 612 419 713 q 424 574 419 591 l 424 562 l 280 562 q 275 585 277 572 q 274 612 274 598 l 274 636 q 227 701 274 701 q 191 684 203 701 q 179 641 179 668 q 206 569 179 604 q 264 496 232 535 l 288 467 q 381 340 341 403 q 422 193 422 278 q 364 42 422 97 q 217 -13 307 -13 q 71 44 128 -13 q 15 208 15 101 q 10 246 15 230 l 10 259 l 157 259 q 162 236 160 250 q 163 208 163 222 l 163 170 q 175 125 163 143 q 211 107 187 107 q 247 125 236 107 q 258 168 258 143 q 227 255 258 212 q 155 350 196 298 l 133 379 q 51 493 86 438 q 15 619 15 548 q 74 768 15 716 q 218 821 134 821 z "},"ś":{"ha":437,"x_min":10,"x_max":424,"o":"m 218 821 q 364 767 308 821 q 419 612 419 713 q 424 574 419 591 l 424 562 l 280 562 q 275 585 277 572 q 274 612 274 598 l 274 636 q 227 701 274 701 q 191 684 203 701 q 179 641 179 668 q 206 569 179 604 q 264 496 232 535 l 288 467 q 381 340 341 403 q 422 193 422 278 q 364 42 422 97 q 217 -13 307 -13 q 71 44 128 -13 q 15 208 15 101 q 10 246 15 230 l 10 259 l 157 259 q 162 236 160 250 q 163 208 163 222 l 163 170 q 175 125 163 143 q 211 107 187 107 q 247 125 236 107 q 258 168 258 143 q 227 255 258 212 q 155 350 196 298 l 133 379 q 51 493 86 438 q 15 619 15 548 q 74 768 15 716 q 218 821 134 821 m 159 865 l 159 878 l 184 1010 l 342 1010 l 342 997 l 273 865 l 159 865 z "},"š":{"ha":437,"x_min":10,"x_max":424,"o":"m 218 821 q 364 767 308 821 q 419 612 419 713 q 424 574 419 591 l 424 562 l 280 562 q 275 585 277 572 q 274 612 274 598 l 274 636 q 227 701 274 701 q 191 684 203 701 q 179 641 179 668 q 206 569 179 604 q 264 496 232 535 l 288 467 q 381 340 341 403 q 422 193 422 278 q 364 42 422 97 q 217 -13 307 -13 q 71 44 128 -13 q 15 208 15 101 q 10 246 15 230 l 10 259 l 157 259 q 162 236 160 250 q 163 208 163 222 l 163 170 q 175 125 163 143 q 211 107 187 107 q 247 125 236 107 q 258 168 258 143 q 227 255 258 212 q 155 350 196 298 l 133 379 q 51 493 86 438 q 15 619 15 548 q 74 768 15 716 q 218 821 134 821 m 146 865 l 77 997 l 77 1010 l 197 1010 l 222 941 l 235 941 l 260 1010 l 380 1010 l 380 997 l 311 865 l 146 865 z "},"ş":{"ha":437,"x_min":10,"x_max":424,"o":"m 218 821 q 364 767 308 821 q 419 612 419 713 q 424 574 419 591 l 424 562 l 280 562 q 275 585 277 572 q 274 612 274 598 l 274 636 q 227 701 274 701 q 191 684 203 701 q 179 641 179 668 q 206 569 179 604 q 264 496 232 535 l 288 467 q 381 340 341 403 q 422 193 422 278 q 364 42 422 97 q 217 -13 307 -13 q 71 44 128 -13 q 15 208 15 101 q 10 246 15 230 l 10 259 l 157 259 q 162 236 160 250 q 163 208 163 222 l 163 170 q 175 125 163 143 q 211 107 187 107 q 247 125 236 107 q 258 168 258 143 q 227 255 258 212 q 155 350 196 298 l 133 379 q 51 493 86 438 q 15 619 15 548 q 74 768 15 716 q 218 821 134 821 m 188 0 l 254 0 l 254 -63 l 266 -63 q 286 -45 273 -53 q 319 -37 299 -37 q 362 -52 345 -37 q 380 -101 380 -68 q 343 -177 380 -146 q 251 -225 307 -208 q 140 -246 196 -241 l 128 -246 l 128 -158 l 206 -158 q 265 -125 265 -158 q 236 -104 265 -104 l 188 -104 l 188 0 z "},"ș":{"ha":437,"x_min":10,"x_max":424,"o":"m 218 821 q 364 767 308 821 q 419 612 419 713 q 424 574 419 591 l 424 562 l 280 562 q 275 585 277 572 q 274 612 274 598 l 274 636 q 227 701 274 701 q 191 684 203 701 q 179 641 179 668 q 206 569 179 604 q 264 496 232 535 l 288 467 q 381 340 341 403 q 422 193 422 278 q 364 42 422 97 q 217 -13 307 -13 q 71 44 128 -13 q 15 208 15 101 q 10 246 15 230 l 10 259 l 157 259 q 162 236 160 250 q 163 208 163 222 l 163 170 q 175 125 163 143 q 211 107 187 107 q 247 125 236 107 q 258 168 258 143 q 227 255 258 212 q 155 350 196 298 l 133 379 q 51 493 86 438 q 15 619 15 548 q 74 768 15 716 q 218 821 134 821 m 130 -44 l 313 -44 l 313 -158 l 218 -265 l 162 -265 l 162 -253 l 218 -164 l 130 -164 l 130 -44 z "},"ß":{"ha":486,"x_min":32,"x_max":473,"o":"m 32 0 l 32 720 q 90 948 32 874 q 256 1023 149 1023 q 369 993 324 1023 q 434 915 413 963 q 455 812 455 867 q 420 670 455 727 q 340 583 385 612 l 340 571 q 401 532 370 561 q 453 451 432 503 q 473 321 473 400 l 473 283 q 419 80 473 160 q 259 0 364 0 l 240 0 l 240 107 l 246 107 q 297 172 297 107 l 297 453 q 246 518 297 518 l 240 518 l 240 625 l 246 625 q 290 689 290 625 l 290 838 q 246 903 290 903 q 202 838 202 903 l 202 0 l 32 0 z "},"t":{"ha":357,"x_min":10,"x_max":345,"o":"m 10 701 l 10 804 q 107 853 83 811 q 136 972 131 895 l 256 972 l 256 808 l 345 808 l 345 701 l 256 701 l 256 158 q 266 119 256 130 q 301 107 277 107 l 327 107 l 337 13 q 296 -4 323 5 q 231 -13 269 -13 q 160 3 193 -13 q 107 55 128 18 q 86 158 86 92 l 86 701 l 10 701 z "},"ŧ":{"ha":357,"x_min":10,"x_max":345,"o":"m 10 448 l 86 448 l 86 701 l 10 701 l 10 804 q 107 853 83 811 q 136 972 131 895 l 256 972 l 256 808 l 345 808 l 345 701 l 256 701 l 256 448 l 345 448 l 345 385 l 256 385 l 256 158 q 266 119 256 130 q 301 107 277 107 l 327 107 l 337 13 q 296 -4 323 5 q 231 -13 269 -13 q 160 3 193 -13 q 107 55 128 18 q 86 158 86 92 l 86 385 l 10 385 l 10 448 z "},"ť":{"ha":357,"x_min":10,"x_max":446,"o":"m 313 1048 l 446 1048 l 446 1035 l 370 846 l 307 846 l 307 859 l 313 1048 m 10 701 l 10 804 q 107 853 83 811 q 136 972 131 895 l 256 972 l 256 808 l 345 808 l 345 701 l 256 701 l 256 158 q 266 119 256 130 q 301 107 277 107 l 327 107 l 337 13 q 296 -4 323 5 q 231 -13 269 -13 q 160 3 193 -13 q 107 55 128 18 q 86 158 86 92 l 86 701 l 10 701 z "},"ţ":{"ha":357,"x_min":10,"x_max":362,"o":"m 10 701 l 10 804 q 107 853 83 811 q 136 972 131 895 l 256 972 l 256 808 l 345 808 l 345 701 l 256 701 l 256 158 q 266 119 256 130 q 301 107 277 107 l 327 107 l 337 13 q 296 -4 323 5 q 231 -13 269 -13 q 160 3 193 -13 q 107 55 128 18 q 86 158 86 92 l 86 701 l 10 701 m 170 0 l 236 0 l 236 -63 l 249 -63 q 268 -45 255 -53 q 302 -37 282 -37 q 345 -52 327 -37 q 362 -101 362 -68 q 326 -177 362 -146 q 234 -225 289 -208 q 122 -246 178 -241 l 110 -246 l 110 -158 l 188 -158 q 247 -125 247 -158 q 218 -104 247 -104 l 170 -104 l 170 0 z "},"ț":{"ha":357,"x_min":10,"x_max":345,"o":"m 10 701 l 10 804 q 107 853 83 811 q 136 972 131 895 l 256 972 l 256 808 l 345 808 l 345 701 l 256 701 l 256 158 q 266 119 256 130 q 301 107 277 107 l 327 107 l 337 13 q 296 -4 323 5 q 231 -13 269 -13 q 160 3 193 -13 q 107 55 128 18 q 86 158 86 92 l 86 701 l 10 701 m 112 -44 l 295 -44 l 295 -158 l 201 -265 l 144 -265 l 144 -253 l 201 -164 l 112 -164 l 112 -44 z "},"u":{"ha":489,"x_min":28,"x_max":457,"o":"m 198 808 l 198 184 q 241 120 198 120 q 287 184 287 120 l 287 808 l 457 808 l 457 0 l 343 0 l 331 101 l 318 101 q 174 -6 285 -6 q 64 47 101 -6 q 28 191 28 100 l 28 808 l 198 808 z "},"ú":{"ha":489,"x_min":28,"x_max":457,"o":"m 198 808 l 198 184 q 241 120 198 120 q 287 184 287 120 l 287 808 l 457 808 l 457 0 l 343 0 l 331 101 l 318 101 q 174 -6 285 -6 q 64 47 101 -6 q 28 191 28 100 l 28 808 l 198 808 m 173 865 l 173 878 l 198 1010 l 356 1010 l 356 997 l 287 865 l 173 865 z "},"û":{"ha":489,"x_min":28,"x_max":457,"o":"m 198 808 l 198 184 q 241 120 198 120 q 287 184 287 120 l 287 808 l 457 808 l 457 0 l 343 0 l 331 101 l 318 101 q 174 -6 285 -6 q 64 47 101 -6 q 28 191 28 100 l 28 808 l 198 808 m 211 865 l 91 865 l 91 878 l 160 1010 l 324 1010 l 394 878 l 394 865 l 274 865 l 249 934 l 236 934 l 211 865 z "},"ü":{"ha":489,"x_min":28,"x_max":457,"o":"m 198 808 l 198 184 q 241 120 198 120 q 287 184 287 120 l 287 808 l 457 808 l 457 0 l 343 0 l 331 101 l 318 101 q 174 -6 285 -6 q 64 47 101 -6 q 28 191 28 100 l 28 808 l 198 808 m 72 1010 l 223 1010 l 223 865 l 72 865 l 72 1010 m 261 1010 l 413 1010 l 413 865 l 261 865 l 261 1010 z "},"ù":{"ha":489,"x_min":28,"x_max":457,"o":"m 198 808 l 198 184 q 241 120 198 120 q 287 184 287 120 l 287 808 l 457 808 l 457 0 l 343 0 l 331 101 l 318 101 q 174 -6 285 -6 q 64 47 101 -6 q 28 191 28 100 l 28 808 l 198 808 m 313 865 l 199 865 l 130 997 l 130 1010 l 288 1010 l 313 878 l 313 865 z "},"ű":{"ha":489,"x_min":28,"x_max":457,"o":"m 198 808 l 198 184 q 241 120 198 120 q 287 184 287 120 l 287 808 l 457 808 l 457 0 l 343 0 l 331 101 l 318 101 q 174 -6 285 -6 q 64 47 101 -6 q 28 191 28 100 l 28 808 l 198 808 m 101 865 l 101 878 l 107 1010 l 249 1010 l 249 997 l 202 865 l 101 865 m 259 865 l 259 878 l 278 1010 l 426 1010 l 426 997 l 366 865 l 259 865 z "},"ū":{"ha":489,"x_min":28,"x_max":457,"o":"m 198 808 l 198 184 q 241 120 198 120 q 287 184 287 120 l 287 808 l 457 808 l 457 0 l 343 0 l 331 101 l 318 101 q 174 -6 285 -6 q 64 47 101 -6 q 28 191 28 100 l 28 808 l 198 808 m 88 972 l 398 972 l 398 871 l 88 871 l 88 972 z "},"ų":{"ha":489,"x_min":28,"x_max":457,"o":"m 198 808 l 198 184 q 241 120 198 120 q 287 184 287 120 l 287 808 l 457 808 l 457 0 l 343 0 l 331 101 l 318 101 q 174 -6 285 -6 q 64 47 101 -6 q 28 191 28 100 l 28 808 l 198 808 m 429 0 q 386 -66 400 -40 q 372 -114 372 -91 q 387 -148 372 -138 q 429 -158 402 -158 l 457 -158 l 457 -234 l 414 -234 q 310 -210 352 -234 q 268 -136 268 -187 q 299 -60 268 -92 q 366 0 330 -28 l 429 0 z "},"ů":{"ha":489,"x_min":28,"x_max":457,"o":"m 198 808 l 198 184 q 241 120 198 120 q 287 184 287 120 l 287 808 l 457 808 l 457 0 l 343 0 l 331 101 l 318 101 q 174 -6 285 -6 q 64 47 101 -6 q 28 191 28 100 l 28 808 l 198 808 m 242 840 q 166 869 197 840 q 135 941 135 898 q 166 1013 135 985 q 242 1042 197 1042 q 319 1013 288 1042 q 350 941 350 985 q 319 869 350 898 q 242 840 288 840 m 242 909 q 265 918 256 909 q 274 941 274 927 q 265 963 274 955 q 242 972 256 972 q 220 963 230 972 q 211 941 211 955 q 220 918 211 927 q 242 909 230 909 z "},"v":{"ha":427,"x_min":5,"x_max":422,"o":"m 264 808 l 422 808 l 422 795 l 314 0 l 112 0 l 5 795 l 5 808 l 163 808 l 207 354 l 220 354 l 264 808 z "},"w":{"ha":571,"x_min":8,"x_max":563,"o":"m 424 808 l 563 808 l 563 795 l 481 0 l 330 0 l 292 391 l 279 391 l 241 0 l 90 0 l 8 795 l 8 808 l 146 808 l 176 391 l 188 391 l 229 808 l 342 808 l 383 391 l 395 391 l 424 808 z "},"ẃ":{"ha":571,"x_min":8,"x_max":563,"o":"m 424 808 l 563 808 l 563 795 l 481 0 l 330 0 l 292 391 l 279 391 l 241 0 l 90 0 l 8 795 l 8 808 l 146 808 l 176 391 l 188 391 l 229 808 l 342 808 l 383 391 l 395 391 l 424 808 m 216 865 l 216 878 l 241 1010 l 399 1010 l 399 997 l 330 865 l 216 865 z "},"ŵ":{"ha":571,"x_min":8,"x_max":563,"o":"m 424 808 l 563 808 l 563 795 l 481 0 l 330 0 l 292 391 l 279 391 l 241 0 l 90 0 l 8 795 l 8 808 l 146 808 l 176 391 l 188 391 l 229 808 l 342 808 l 383 391 l 395 391 l 424 808 m 254 865 l 134 865 l 134 878 l 203 1010 l 367 1010 l 437 878 l 437 865 l 317 865 l 292 934 l 279 934 l 254 865 z "},"ẅ":{"ha":571,"x_min":8,"x_max":563,"o":"m 424 808 l 563 808 l 563 795 l 481 0 l 330 0 l 292 391 l 279 391 l 241 0 l 90 0 l 8 795 l 8 808 l 146 808 l 176 391 l 188 391 l 229 808 l 342 808 l 383 391 l 395 391 l 424 808 m 115 1010 l 266 1010 l 266 865 l 115 865 l 115 1010 m 304 1010 l 456 1010 l 456 865 l 304 865 l 304 1010 z "},"ẁ":{"ha":571,"x_min":8,"x_max":563,"o":"m 424 808 l 563 808 l 563 795 l 481 0 l 330 0 l 292 391 l 279 391 l 241 0 l 90 0 l 8 795 l 8 808 l 146 808 l 176 391 l 188 391 l 229 808 l 342 808 l 383 391 l 395 391 l 424 808 m 356 865 l 242 865 l 173 997 l 173 1010 l 331 1010 l 356 878 l 356 865 z "},"x":{"ha":449,"x_min":8,"x_max":442,"o":"m 284 808 l 442 808 l 442 795 l 372 410 l 372 404 l 442 13 l 442 0 l 284 0 l 231 299 l 218 299 l 165 0 l 8 0 l 8 13 l 77 404 l 77 410 l 8 795 l 8 808 l 165 808 l 218 515 l 231 515 l 284 808 z "},"y":{"ha":427,"x_min":5,"x_max":422,"o":"m 264 808 l 422 808 l 422 795 l 288 -189 l 140 -189 l 140 -177 l 181 95 l 98 95 l 5 795 l 5 808 l 163 808 l 207 354 l 220 354 l 264 808 z "},"ý":{"ha":427,"x_min":5,"x_max":422,"o":"m 264 808 l 422 808 l 422 795 l 288 -189 l 140 -189 l 140 -177 l 181 95 l 98 95 l 5 795 l 5 808 l 163 808 l 207 354 l 220 354 l 264 808 m 144 865 l 144 878 l 169 1010 l 327 1010 l 327 997 l 258 865 l 144 865 z "},"ŷ":{"ha":427,"x_min":5,"x_max":422,"o":"m 264 808 l 422 808 l 422 795 l 288 -189 l 140 -189 l 140 -177 l 181 95 l 98 95 l 5 795 l 5 808 l 163 808 l 207 354 l 220 354 l 264 808 m 182 865 l 62 865 l 62 878 l 131 1010 l 295 1010 l 365 878 l 365 865 l 245 865 l 220 934 l 207 934 l 182 865 z "},"ÿ":{"ha":427,"x_min":5,"x_max":422,"o":"m 264 808 l 422 808 l 422 795 l 288 -189 l 140 -189 l 140 -177 l 181 95 l 98 95 l 5 795 l 5 808 l 163 808 l 207 354 l 220 354 l 264 808 m 43 1010 l 194 1010 l 194 865 l 43 865 l 43 1010 m 232 1010 l 384 1010 l 384 865 l 232 865 l 232 1010 z "},"ỳ":{"ha":427,"x_min":5,"x_max":422,"o":"m 264 808 l 422 808 l 422 795 l 288 -189 l 140 -189 l 140 -177 l 181 95 l 98 95 l 5 795 l 5 808 l 163 808 l 207 354 l 220 354 l 264 808 m 284 865 l 170 865 l 101 997 l 101 1010 l 259 1010 l 284 878 l 284 865 z "},"z":{"ha":402,"x_min":18,"x_max":384,"o":"m 18 0 l 18 76 l 197 694 l 18 694 l 18 808 l 384 808 l 384 732 l 205 114 l 384 114 l 384 0 l 18 0 z "},"ź":{"ha":402,"x_min":18,"x_max":384,"o":"m 18 0 l 18 76 l 197 694 l 18 694 l 18 808 l 384 808 l 384 732 l 205 114 l 384 114 l 384 0 l 18 0 m 140 865 l 140 878 l 165 1010 l 323 1010 l 323 997 l 254 865 l 140 865 z "},"ž":{"ha":402,"x_min":18,"x_max":384,"o":"m 18 0 l 18 76 l 197 694 l 18 694 l 18 808 l 384 808 l 384 732 l 205 114 l 384 114 l 384 0 l 18 0 m 128 865 l 58 997 l 58 1010 l 178 1010 l 203 941 l 216 941 l 241 1010 l 361 1010 l 361 997 l 292 865 l 128 865 z "},"ż":{"ha":402,"x_min":18,"x_max":384,"o":"m 18 0 l 18 76 l 197 694 l 18 694 l 18 808 l 384 808 l 384 732 l 205 114 l 384 114 l 384 0 l 18 0 m 119 1010 l 302 1010 l 302 865 l 119 865 l 119 1010 z "},"ﬁ":{"ha":601,"x_min":10,"x_max":576,"o":"m 10 808 l 98 808 l 98 846 q 119 949 98 913 q 173 1001 140 986 q 244 1016 206 1016 q 311 1008 284 1016 q 351 991 337 999 l 338 903 l 313 903 q 279 892 289 903 q 269 852 269 881 l 269 808 l 357 808 l 357 701 l 269 701 l 269 0 l 98 0 l 98 701 l 10 701 l 10 808 m 399 808 l 569 808 l 569 0 l 399 0 l 399 808 m 393 1010 l 576 1010 l 576 865 l 393 865 l 393 1010 z "},"ﬂ":{"ha":601,"x_min":10,"x_max":569,"o":"m 10 808 l 98 808 l 98 846 q 119 949 98 913 q 173 1001 140 986 q 244 1016 206 1016 q 311 1008 284 1016 q 351 991 337 999 l 338 903 l 313 903 q 279 892 289 903 q 269 852 269 881 l 269 808 l 357 808 l 357 701 l 269 701 l 269 0 l 98 0 l 98 701 l 10 701 l 10 808 m 399 1010 l 569 1010 l 569 0 l 399 0 l 399 1010 z "},".":{"ha":221,"x_min":38,"x_max":183,"o":"m 38 202 l 183 202 l 183 0 l 38 0 l 38 202 z "},",":{"ha":221,"x_min":38,"x_max":183,"o":"m 95 0 l 38 0 l 38 202 l 183 202 l 183 6 l 114 -189 l 63 -189 l 63 -177 l 95 0 z "},":":{"ha":221,"x_min":38,"x_max":183,"o":"m 38 808 l 183 808 l 183 606 l 38 606 l 38 808 m 38 202 l 183 202 l 183 0 l 38 0 l 38 202 z "},";":{"ha":221,"x_min":38,"x_max":183,"o":"m 38 808 l 183 808 l 183 606 l 38 606 l 38 808 m 95 0 l 38 0 l 38 202 l 183 202 l 183 6 l 114 -189 l 63 -189 l 63 -177 l 95 0 z "},"…":{"ha":537,"x_min":38,"x_max":499,"o":"m 38 202 l 158 202 l 158 0 l 38 0 l 38 202 m 208 202 l 328 202 l 328 0 l 208 0 l 208 202 m 379 202 l 499 202 l 499 0 l 379 0 l 379 202 z "},"!":{"ha":234,"x_min":38,"x_max":196,"o":"m 38 1010 l 196 1010 l 196 758 l 152 259 l 82 259 l 38 758 l 38 1010 m 44 202 l 189 202 l 189 0 l 44 0 l 44 202 z "},"¡":{"ha":234,"x_min":38,"x_max":196,"o":"m 44 606 l 44 808 l 189 808 l 189 606 l 44 606 m 38 -189 l 38 51 l 82 549 l 152 549 l 196 51 l 196 -189 l 38 -189 z "},"?":{"ha":473,"x_min":15,"x_max":456,"o":"m 199 259 q 188 386 188 331 q 196 492 187 441 q 225 602 206 543 q 263 713 246 667 q 279 809 279 759 q 231 878 279 878 q 184 817 184 878 l 184 731 q 183 702 184 717 q 179 676 182 687 l 15 676 l 15 688 q 19 720 18 703 q 20 755 20 737 l 20 780 q 78 956 20 889 q 239 1023 135 1023 q 400 959 343 1023 q 456 802 456 895 q 424 646 456 713 q 351 509 391 578 q 314 437 330 471 q 287 361 298 403 q 269 259 277 319 l 199 259 m 162 202 l 307 202 l 307 0 l 162 0 l 162 202 z "},"¿":{"ha":473,"x_min":18,"x_max":458,"o":"m 312 606 l 167 606 l 167 808 l 312 808 l 312 606 m 274 549 q 287 431 287 484 q 277 328 287 379 q 249 218 268 278 q 211 109 229 154 q 194 11 194 63 q 242 -57 194 -57 q 289 4 289 -57 l 289 90 q 290 119 289 104 q 294 145 292 134 l 458 145 l 458 133 q 455 100 456 117 q 453 66 453 83 l 453 40 q 396 -135 453 -68 q 235 -202 340 -202 q 74 -138 131 -202 q 18 19 18 -73 q 50 176 18 109 q 122 312 82 242 q 160 384 145 350 q 186 457 176 418 q 205 549 197 496 l 274 549 z "},"·":{"ha":221,"x_min":38,"x_max":183,"o":"m 38 530 l 183 530 l 183 328 l 38 328 l 38 530 z "},"•":{"ha":404,"x_min":19,"x_max":385,"o":"m 19 418 l 19 428 q 63 595 19 528 q 202 663 107 663 q 341 595 297 663 q 385 428 385 528 l 385 418 q 341 251 385 318 q 202 183 297 183 q 63 251 107 183 q 19 418 19 318 z "},"*":{"ha":470,"x_min":28,"x_max":442,"o":"m 191 596 l 191 609 l 198 682 l 207 737 l 176 692 l 129 634 l 120 625 l 57 688 l 66 697 l 124 744 l 169 775 l 114 766 l 40 759 l 28 759 l 28 847 l 40 847 l 114 840 l 169 831 l 124 862 l 66 909 l 57 918 l 120 981 l 129 972 l 176 914 l 207 869 l 198 924 l 191 997 l 191 1010 l 279 1010 l 279 997 l 271 924 l 263 869 l 294 914 l 341 972 l 350 981 l 413 918 l 404 909 l 346 862 l 301 831 l 356 840 l 429 847 l 442 847 l 442 759 l 429 759 l 356 766 l 301 775 l 346 744 l 404 697 l 413 688 l 350 625 l 341 634 l 294 692 l 263 737 l 271 682 l 279 609 l 279 596 l 191 596 z "},"#":{"ha":600,"x_min":25,"x_max":574,"o":"m 25 429 l 112 429 l 121 587 l 25 587 l 25 732 l 129 732 l 145 1010 l 290 1010 l 290 997 l 275 732 l 350 732 l 366 1010 l 511 1010 l 511 997 l 496 732 l 574 732 l 574 587 l 487 587 l 479 429 l 574 429 l 574 284 l 471 284 l 455 0 l 309 0 l 309 13 l 324 284 l 250 284 l 234 0 l 88 0 l 88 13 l 104 284 l 25 284 l 25 429 m 258 429 l 333 429 l 342 587 l 266 587 l 258 429 z "},"/":{"ha":360,"x_min":6,"x_max":354,"o":"m 354 997 l 170 -278 l 6 -278 l 6 -265 l 189 1010 l 354 1010 l 354 997 z "},"\\":{"ha":360,"x_min":6,"x_max":354,"o":"m 6 1010 l 170 1010 l 354 -265 l 354 -278 l 189 -278 l 6 997 l 6 1010 z "},"(":{"ha":290,"x_min":25,"x_max":290,"o":"m 183 1086 l 290 1086 l 290 1073 q 218 792 247 946 q 189 448 189 638 q 218 105 189 259 q 290 -177 247 -49 l 290 -189 l 183 -189 q 66 101 107 -52 q 25 448 25 254 q 66 795 25 643 q 183 1086 107 948 z "},")":{"ha":290,"x_min":25,"x_max":290,"o":"m 133 -189 l 25 -189 l 25 -177 q 97 105 68 -49 q 126 448 126 259 q 97 792 126 638 q 25 1073 68 946 l 25 1086 l 133 1086 q 249 795 208 948 q 290 448 290 643 q 249 101 290 254 q 133 -189 208 -52 z "},"{":{"ha":366,"x_min":19,"x_max":366,"o":"m 19 398 l 19 499 l 44 499 q 104 518 87 499 q 120 574 120 537 l 120 915 q 165 1044 120 1001 q 290 1086 210 1086 l 366 1086 l 366 985 l 278 985 l 278 587 q 242 485 278 516 q 139 455 206 455 l 139 442 q 242 411 206 442 q 278 309 278 380 l 278 -88 l 366 -88 l 366 -189 l 290 -189 q 165 -146 210 -189 q 120 -19 120 -104 l 120 322 q 104 379 120 360 q 44 398 87 398 l 19 398 z "},"}":{"ha":366,"x_min":0,"x_max":347,"o":"m 347 398 l 322 398 q 263 379 279 398 q 246 322 246 360 l 246 -19 q 201 -146 246 -104 q 76 -189 157 -189 l 0 -189 l 0 -88 l 88 -88 l 88 309 q 125 411 88 380 q 227 442 162 442 l 227 455 q 125 485 162 455 q 88 587 88 516 l 88 985 l 0 985 l 0 1086 l 76 1086 q 201 1044 157 1086 q 246 915 246 1001 l 246 574 q 263 518 246 537 q 322 499 279 499 l 347 499 l 347 398 z "},"[":{"ha":290,"x_min":32,"x_max":290,"o":"m 32 1086 l 290 1086 l 290 985 l 189 985 l 189 -88 l 290 -88 l 290 -189 l 32 -189 l 32 1086 z "},"]":{"ha":290,"x_min":0,"x_max":259,"o":"m 259 1086 l 259 -189 l 0 -189 l 0 -88 l 101 -88 l 101 985 l 0 985 l 0 1086 l 259 1086 z "},"-":{"ha":347,"x_min":32,"x_max":316,"o":"m 32 467 l 316 467 l 316 328 l 32 328 l 32 467 z "},"–":{"ha":499,"x_min":32,"x_max":467,"o":"m 32 467 l 467 467 l 467 328 l 32 328 l 32 467 z "},"—":{"ha":650,"x_min":32,"x_max":619,"o":"m 32 467 l 619 467 l 619 328 l 32 328 l 32 467 z "},"_":{"ha":499,"x_min":32,"x_max":467,"o":"m 32 -51 l 467 -51 l 467 -177 l 32 -177 l 32 -51 z "},"‚":{"ha":221,"x_min":38,"x_max":183,"o":"m 95 0 l 38 0 l 38 202 l 183 202 l 183 6 l 114 -189 l 63 -189 l 63 -177 l 95 0 z "},"„":{"ha":379,"x_min":38,"x_max":341,"o":"m 95 0 l 38 0 l 38 202 l 170 202 l 170 6 l 101 -189 l 63 -189 l 63 -177 l 95 0 m 265 0 l 208 0 l 208 202 l 341 202 l 341 6 l 271 -189 l 234 -189 l 234 -177 l 265 0 z "},"“":{"ha":379,"x_min":38,"x_max":341,"o":"m 341 707 l 208 707 l 208 903 l 278 1098 l 316 1098 l 316 1086 l 284 909 l 341 909 l 341 707 m 170 707 l 38 707 l 38 903 l 107 1098 l 145 1098 l 145 1086 l 114 909 l 170 909 l 170 707 z "},"”":{"ha":379,"x_min":38,"x_max":341,"o":"m 95 808 l 38 808 l 38 1010 l 170 1010 l 170 814 l 101 619 l 63 619 l 63 631 l 95 808 m 265 808 l 208 808 l 208 1010 l 341 1010 l 341 814 l 271 619 l 234 619 l 234 631 l 265 808 z "},"‘":{"ha":221,"x_min":38,"x_max":183,"o":"m 183 707 l 38 707 l 38 903 l 107 1098 l 158 1098 l 158 1086 l 126 909 l 183 909 l 183 707 z "},"’":{"ha":221,"x_min":38,"x_max":183,"o":"m 95 808 l 38 808 l 38 1010 l 183 1010 l 183 814 l 114 619 l 63 619 l 63 631 l 95 808 z "},"«":{"ha":398,"x_min":6,"x_max":385,"o":"m 95 663 l 215 663 l 215 650 l 133 410 l 215 170 l 215 158 l 95 158 l 6 410 l 95 663 m 265 663 l 385 663 l 385 650 l 303 410 l 385 170 l 385 158 l 265 158 l 177 410 l 265 663 z "},"»":{"ha":398,"x_min":13,"x_max":391,"o":"m 303 663 l 391 410 l 303 158 l 183 158 l 183 170 l 265 410 l 183 650 l 183 663 l 303 663 m 133 663 l 221 410 l 133 158 l 13 158 l 13 170 l 95 410 l 13 650 l 13 663 l 133 663 z "},"‹":{"ha":253,"x_min":6,"x_max":240,"o":"m 95 663 l 240 663 l 240 650 l 158 410 l 240 170 l 240 158 l 95 158 l 6 410 l 95 663 z "},"›":{"ha":253,"x_min":13,"x_max":246,"o":"m 158 663 l 246 410 l 158 158 l 13 158 l 13 170 l 95 410 l 13 650 l 13 663 l 158 663 z "},"\"":{"ha":379,"x_min":38,"x_max":341,"o":"m 95 808 l 38 808 l 38 1010 l 170 1010 l 170 814 l 101 619 l 63 619 l 63 631 l 95 808 m 265 808 l 208 808 l 208 1010 l 341 1010 l 341 814 l 271 619 l 234 619 l 234 631 l 265 808 z "},"'":{"ha":221,"x_min":38,"x_max":183,"o":"m 95 808 l 38 808 l 38 1010 l 183 1010 l 183 814 l 114 619 l 63 619 l 63 631 l 95 808 z "}," ":{"ha":177,"x_min":0,"x_max":0,"o":""},"¢":{"ha":460,"x_min":18,"x_max":447,"o":"m 18 492 q 60 702 18 615 q 186 813 102 789 l 186 915 l 299 915 l 299 814 q 406 735 371 797 q 441 593 441 674 q 442 557 441 574 q 447 524 443 539 l 447 511 l 290 511 q 284 543 285 525 q 283 581 283 561 l 283 636 q 239 701 283 701 q 194 636 194 701 l 194 172 q 239 107 194 107 q 283 172 283 107 l 283 234 q 284 273 283 255 q 290 303 285 290 l 447 303 l 447 290 q 442 260 443 278 q 441 221 441 242 q 406 76 441 140 q 299 -6 371 13 l 299 -107 l 186 -107 l 186 -5 q 60 106 102 19 q 18 316 18 193 l 18 492 z "},"¤":{"ha":806,"x_min":19,"x_max":787,"o":"m 19 189 l 122 292 q 67 389 87 336 q 47 503 47 442 q 67 616 47 563 q 122 713 87 669 l 19 816 l 100 896 l 208 789 q 301 831 251 816 q 403 846 350 846 q 505 831 456 846 q 597 789 554 816 l 706 896 l 787 816 l 683 713 q 739 616 718 669 q 759 503 759 563 q 739 389 759 442 q 683 292 718 336 l 787 189 l 706 109 l 597 216 q 505 174 554 189 q 403 159 456 159 q 301 174 350 159 q 208 216 251 189 l 100 109 l 19 189 m 403 298 q 504 324 460 298 q 575 397 549 351 q 601 503 601 443 q 575 608 601 562 q 504 681 549 654 q 403 707 460 707 q 301 681 346 707 q 230 608 256 654 q 205 503 205 562 q 230 397 205 443 q 301 324 256 351 q 403 298 346 298 z "},"$":{"ha":485,"x_min":5,"x_max":476,"o":"m 5 347 l 178 347 q 184 323 183 338 q 186 290 186 307 l 186 197 q 198 150 186 168 q 232 133 211 133 q 280 202 280 133 q 247 319 280 263 q 172 431 213 376 l 135 479 q 66 581 92 535 q 27 674 39 628 q 14 777 14 721 q 61 936 14 871 q 191 1018 107 1001 l 191 1117 l 304 1117 l 304 1016 q 426 931 384 997 q 468 761 468 864 q 470 721 468 739 q 476 688 471 703 l 476 676 l 306 676 q 298 732 298 697 l 298 817 q 285 862 298 847 q 253 878 273 878 q 218 861 232 878 q 203 807 203 845 q 230 706 203 751 q 298 609 256 662 l 336 561 q 436 406 402 479 q 470 240 470 333 q 422 73 470 139 q 293 -9 375 8 l 293 -107 l 179 -107 l 179 -5 q 54 83 96 14 q 13 264 13 152 q 11 304 13 287 q 5 335 10 321 l 5 347 z "},"€":{"ha":614,"x_min":13,"x_max":604,"o":"m 120 543 l 42 543 l 42 556 l 57 650 l 124 650 q 205 937 138 851 q 388 1023 271 1023 q 511 988 466 1023 q 574 900 556 953 q 595 789 593 846 q 596 754 595 773 q 601 720 597 735 l 601 707 l 429 707 q 423 764 423 729 l 423 813 q 412 855 423 840 q 378 871 400 871 q 328 807 328 871 l 328 650 l 489 650 l 489 638 l 473 543 l 328 543 l 328 480 l 460 480 l 460 467 l 444 372 l 328 372 l 328 210 q 378 145 328 145 q 412 161 400 145 q 423 203 423 177 l 423 253 q 429 309 423 288 l 604 309 l 604 297 q 598 261 598 280 q 597 221 598 242 q 575 110 596 164 q 509 22 554 57 q 385 -13 463 -13 q 203 76 270 -13 q 122 372 135 165 l 13 372 l 13 385 l 28 480 l 120 480 l 120 543 z "},"£":{"ha":548,"x_min":19,"x_max":516,"o":"m 67 0 l 67 120 q 110 203 92 157 q 129 322 129 249 q 127 363 129 342 q 122 404 125 384 l 19 404 l 19 511 l 101 511 q 70 645 86 580 q 54 770 54 710 q 116 953 54 884 q 284 1023 177 1023 q 451 951 393 1023 q 509 754 509 880 l 509 730 q 510 694 509 712 q 516 663 511 677 l 516 650 l 346 650 q 338 707 338 672 l 338 817 q 292 878 338 878 q 244 812 244 878 l 244 789 q 261 659 244 729 q 293 511 278 590 l 395 511 l 395 404 l 307 404 q 309 347 309 375 q 294 238 309 282 q 250 158 279 194 l 516 158 l 516 0 l 67 0 z "},"¥":{"ha":492,"x_min":19,"x_max":473,"o":"m 145 0 l 145 297 l 19 297 l 19 404 l 145 404 l 145 480 l 19 480 l 19 587 l 101 587 l 19 997 l 19 1010 l 196 1010 l 240 698 l 253 698 l 297 1010 l 473 1010 l 473 997 l 391 587 l 473 587 l 473 480 l 347 480 l 347 404 l 473 404 l 473 297 l 347 297 l 347 0 l 145 0 z "},"+":{"ha":510,"x_min":32,"x_max":479,"o":"m 32 574 l 173 574 l 173 755 l 337 755 l 337 574 l 479 574 l 479 423 l 337 423 l 337 244 l 173 244 l 173 423 l 32 423 l 32 574 z "},"−":{"ha":510,"x_min":32,"x_max":479,"o":"m 32 574 l 479 574 l 479 423 l 32 423 l 32 574 z "},"×":{"ha":510,"x_min":32,"x_max":479,"o":"m 139 722 l 255 605 l 372 721 l 479 615 l 361 499 l 479 380 l 372 274 l 255 393 l 138 275 l 32 381 l 149 499 l 33 616 l 139 722 z "},"÷":{"ha":510,"x_min":32,"x_max":479,"o":"m 343 770 l 343 625 l 167 625 l 167 770 l 343 770 m 32 574 l 479 574 l 479 423 l 32 423 l 32 574 m 343 372 l 343 227 l 167 227 l 167 372 l 343 372 z "},"=":{"ha":510,"x_min":32,"x_max":479,"o":"m 32 688 l 479 688 l 479 537 l 32 537 l 32 688 m 32 461 l 479 461 l 479 309 l 32 309 l 32 461 z "},"≠":{"ha":510,"x_min":32,"x_max":479,"o":"m 32 461 l 187 461 l 206 537 l 32 537 l 32 688 l 245 688 l 277 814 l 390 814 l 390 802 l 361 688 l 479 688 l 479 537 l 323 537 l 304 461 l 479 461 l 479 309 l 265 309 l 234 183 l 120 183 l 120 196 l 149 309 l 32 309 l 32 461 z "},">":{"ha":510,"x_min":32,"x_max":479,"o":"m 479 574 l 479 423 l 44 270 l 32 270 l 32 417 l 301 492 l 301 505 l 32 581 l 32 727 l 44 727 l 479 574 z "},"<":{"ha":510,"x_min":32,"x_max":479,"o":"m 32 574 l 466 727 l 479 727 l 479 581 l 210 505 l 210 492 l 479 417 l 479 270 l 466 270 l 32 423 l 32 574 z "},"≥":{"ha":510,"x_min":32,"x_max":479,"o":"m 479 574 l 479 423 l 44 270 l 32 270 l 32 417 l 301 492 l 301 505 l 32 581 l 32 727 l 44 727 l 479 574 m 479 152 l 479 0 l 32 0 l 32 152 l 479 152 z "},"≤":{"ha":510,"x_min":32,"x_max":479,"o":"m 32 574 l 466 727 l 479 727 l 479 581 l 210 505 l 210 492 l 479 417 l 479 270 l 466 270 l 32 423 l 32 574 m 32 152 l 479 152 l 479 0 l 32 0 l 32 152 z "},"±":{"ha":510,"x_min":32,"x_max":479,"o":"m 32 574 l 173 574 l 173 755 l 337 755 l 337 574 l 479 574 l 479 423 l 337 423 l 337 244 l 173 244 l 173 423 l 32 423 l 32 574 m 479 152 l 479 0 l 32 0 l 32 152 l 479 152 z "},"≈":{"ha":510,"x_min":32,"x_max":479,"o":"m 375 511 q 300 527 338 511 q 227 559 261 543 q 165 574 192 574 q 120 518 120 574 l 32 518 l 32 574 q 54 674 32 635 q 135 713 76 713 q 211 698 173 713 q 283 666 249 682 q 345 650 318 650 q 390 707 390 650 l 479 707 l 479 650 q 456 551 479 590 q 375 511 434 511 m 375 284 q 300 300 338 284 q 227 331 261 316 q 165 347 192 347 q 120 290 120 347 l 32 290 l 32 347 q 54 447 32 408 q 135 486 76 486 q 211 470 173 486 q 283 439 249 455 q 345 423 318 423 q 390 480 390 423 l 479 480 l 479 423 q 456 323 479 362 q 375 284 434 284 z "},"~":{"ha":510,"x_min":32,"x_max":479,"o":"m 375 398 q 300 414 338 398 q 227 445 261 429 q 165 461 192 461 q 120 404 120 461 l 32 404 l 32 461 q 54 561 32 521 q 135 600 76 600 q 211 584 173 600 q 283 552 249 568 q 345 537 318 537 q 390 593 390 537 l 479 593 l 479 537 q 456 437 479 476 q 375 398 434 398 z "},"^":{"ha":442,"x_min":25,"x_max":417,"o":"m 158 1010 l 284 1010 l 417 619 l 417 606 l 284 606 l 227 814 l 215 814 l 158 606 l 25 606 l 25 619 l 158 1010 z "},"∅":{"ha":806,"x_min":19,"x_max":787,"o":"m 19 189 l 121 294 q 66 390 86 337 q 47 503 47 443 q 76 638 47 576 q 155 747 105 701 q 269 820 205 794 q 403 846 333 846 q 506 831 456 846 q 600 787 557 816 l 706 896 l 787 816 l 684 711 q 739 615 720 668 q 759 503 759 562 q 730 367 759 429 q 651 258 701 304 q 537 185 601 211 q 403 159 473 159 q 299 174 350 159 q 206 218 249 189 l 100 109 l 19 189 m 205 503 q 227 404 205 448 l 499 683 q 403 707 456 707 q 301 681 346 707 q 230 608 256 654 q 205 503 205 562 m 403 298 q 504 324 460 298 q 575 397 549 351 q 601 503 601 443 q 578 601 601 557 l 307 322 q 403 298 350 298 z "},"%":{"ha":667,"x_min":19,"x_max":648,"o":"m 170 619 q 61 672 102 619 q 19 821 19 726 q 61 969 19 915 q 170 1023 102 1023 q 280 969 239 1023 q 322 821 322 915 q 280 672 322 726 q 170 619 239 619 m 461 1010 l 612 1010 l 612 997 l 206 0 l 54 0 l 54 13 l 461 1010 m 170 726 q 196 770 196 726 l 196 871 q 170 915 196 915 q 145 871 145 915 l 145 770 q 170 726 145 726 m 496 -13 q 386 41 428 -13 q 345 189 345 95 q 386 338 345 284 q 496 391 428 391 q 606 338 564 391 q 648 189 648 284 q 606 41 648 95 q 496 -13 564 -13 m 496 95 q 521 139 521 95 l 521 240 q 496 284 521 284 q 471 240 471 284 l 471 139 q 496 95 471 95 z "},"‰":{"ha":1001,"x_min":19,"x_max":982,"o":"m 170 619 q 61 672 102 619 q 19 821 19 726 q 61 969 19 915 q 170 1023 102 1023 q 280 969 239 1023 q 322 821 322 915 q 280 672 322 726 q 170 619 239 619 m 461 1010 l 612 1010 l 612 997 l 206 0 l 54 0 l 54 13 l 461 1010 m 170 726 q 196 770 196 726 l 196 871 q 170 915 196 915 q 145 871 145 915 l 145 770 q 170 726 145 726 m 496 -13 q 386 41 428 -13 q 345 189 345 95 q 386 338 345 284 q 496 391 428 391 q 606 338 564 391 q 648 189 648 284 q 606 41 648 95 q 496 -13 564 -13 m 831 -13 q 721 41 763 -13 q 679 189 679 95 q 721 338 679 284 q 831 391 763 391 q 941 338 899 391 q 982 189 982 284 q 941 41 982 95 q 831 -13 899 -13 m 496 95 q 521 139 521 95 l 521 240 q 496 284 521 284 q 471 240 471 284 l 471 139 q 496 95 471 95 m 831 95 q 856 139 856 95 l 856 240 q 831 284 856 284 q 806 240 806 284 l 806 139 q 831 95 806 95 z "},"↑":{"ha":442,"x_min":13,"x_max":429,"o":"m 152 0 l 152 543 l 13 543 l 13 619 l 177 808 l 265 808 l 429 619 l 429 543 l 290 543 l 290 0 l 152 0 z "},"↗":{"ha":852,"x_min":6,"x_max":827,"o":"m 6 86 l 573 653 l 473 751 l 530 808 l 764 808 l 827 745 l 827 511 l 770 455 l 672 554 l 105 -13 l 6 86 z "},"→":{"ha":1080,"x_min":25,"x_max":1061,"o":"m 25 467 l 795 467 l 795 606 l 871 606 l 1061 442 l 1061 354 l 871 189 l 795 189 l 795 328 l 25 328 l 25 467 z "},"↘":{"ha":852,"x_min":6,"x_max":827,"o":"m 473 57 l 573 157 l 6 722 l 105 821 l 672 255 l 770 354 l 827 297 l 827 63 l 764 0 l 530 0 l 473 57 z "},"↓":{"ha":442,"x_min":13,"x_max":429,"o":"m 13 265 l 152 265 l 152 808 l 290 808 l 290 265 l 429 265 l 429 189 l 265 0 l 177 0 l 13 189 l 13 265 z "},"↙":{"ha":852,"x_min":25,"x_max":846,"o":"m 379 57 l 322 0 l 88 0 l 25 63 l 25 297 l 82 354 l 182 255 l 747 821 l 846 722 l 280 157 l 379 57 z "},"←":{"ha":1080,"x_min":19,"x_max":1054,"o":"m 284 606 l 284 467 l 1054 467 l 1054 328 l 284 328 l 284 189 l 208 189 l 19 354 l 19 442 l 208 606 l 284 606 z "},"↖":{"ha":852,"x_min":25,"x_max":846,"o":"m 379 751 l 280 653 l 846 86 l 747 -13 l 182 554 l 82 455 l 25 511 l 25 745 l 88 808 l 322 808 l 379 751 z "},"↔":{"ha":1073,"x_min":19,"x_max":1054,"o":"m 284 467 l 789 467 l 789 606 l 865 606 l 1054 442 l 1054 354 l 865 189 l 789 189 l 789 328 l 284 328 l 284 189 l 208 189 l 19 354 l 19 442 l 208 606 l 284 606 l 284 467 z "},"↕":{"ha":442,"x_min":13,"x_max":429,"o":"m 13 265 l 152 265 l 152 543 l 13 543 l 13 619 l 177 808 l 265 808 l 429 619 l 429 543 l 290 543 l 290 265 l 429 265 l 429 189 l 265 0 l 177 0 l 13 189 l 13 265 z "},"◊":{"ha":581,"x_min":19,"x_max":562,"o":"m 215 1010 l 366 1010 l 562 505 l 366 0 l 215 0 l 19 505 l 215 1010 m 177 505 l 284 211 l 297 211 l 404 505 l 297 799 l 284 799 l 177 505 z "},"@":{"ha":934,"x_min":25,"x_max":909,"o":"m 25 227 l 25 593 q 77 831 25 739 q 220 967 129 923 q 432 1010 312 1010 l 515 1010 q 723 967 635 1010 q 860 831 812 923 q 909 593 909 739 l 909 246 q 869 78 909 143 q 732 13 828 13 q 619 48 655 13 q 568 126 582 83 l 556 126 q 518 48 547 83 q 428 13 490 13 q 299 78 338 13 q 259 246 259 143 l 259 574 q 299 744 259 679 q 428 808 338 808 q 518 773 490 808 q 556 694 547 737 l 568 694 l 587 795 l 676 795 l 676 208 q 713 145 676 145 q 751 208 751 145 l 751 606 q 691 809 751 740 q 503 878 630 878 l 432 878 q 244 809 304 878 q 183 606 183 740 l 183 215 q 244 12 183 81 q 432 -57 304 -57 l 713 -57 l 713 -189 l 432 -189 q 220 -146 312 -189 q 77 -10 129 -102 q 25 227 25 82 m 429 208 q 467 145 429 145 q 505 208 505 145 l 505 612 q 467 676 505 676 q 429 612 429 676 l 429 208 z "},"&":{"ha":639,"x_min":18,"x_max":639,"o":"m 636 543 l 636 530 q 610 503 621 518 q 587 461 600 489 l 487 231 l 537 140 q 590 61 563 92 q 639 13 616 30 l 639 0 l 436 0 q 396 47 414 13 l 385 47 q 332 8 365 28 q 241 -13 299 -13 q 78 52 138 -13 q 18 222 18 116 q 54 379 18 311 q 144 516 90 447 q 88 638 112 577 q 64 780 64 699 q 124 957 64 891 q 274 1023 183 1023 q 425 958 371 1023 q 479 797 479 893 q 437 636 479 708 q 345 504 396 564 l 391 413 l 404 413 l 429 481 q 466 543 444 523 l 636 543 m 235 804 q 241 734 235 766 q 265 665 247 702 l 278 665 q 335 811 335 737 q 285 889 335 889 q 235 804 235 889 m 194 234 q 211 172 194 194 q 256 149 229 149 q 297 164 282 149 q 318 199 312 179 l 241 343 l 229 343 q 205 293 215 319 q 194 234 194 266 z "},"¶":{"ha":771,"x_min":10,"x_max":761,"o":"m 761 1010 l 761 846 l 686 846 l 686 0 l 528 0 l 528 846 l 427 846 l 427 0 l 269 0 l 269 417 q 141 449 199 417 q 46 547 82 481 q 10 713 10 612 q 46 880 10 814 q 141 978 82 946 q 271 1010 201 1010 l 761 1010 z "},"§":{"ha":574,"x_min":13,"x_max":562,"o":"m 287 1023 q 432 969 376 1023 q 487 814 487 915 q 492 764 487 780 l 492 751 l 348 751 q 343 775 345 761 q 342 802 342 788 l 342 838 q 295 903 342 903 q 259 886 271 903 q 247 843 247 870 q 272 771 247 806 q 332 698 297 736 l 426 597 q 530 465 497 519 q 562 346 562 412 q 532 230 562 274 q 453 152 501 186 q 481 82 471 119 q 491 4 491 45 q 434 -147 491 -92 q 287 -202 376 -202 q 141 -145 197 -202 q 85 19 85 -88 q 80 69 85 53 l 80 82 l 223 82 q 229 59 227 73 q 230 32 230 45 l 230 -19 q 242 -64 230 -47 q 279 -82 255 -82 q 316 -64 304 -82 q 327 -21 327 -47 q 299 67 327 23 q 225 160 270 111 l 149 242 q 45 374 77 321 q 13 494 13 428 q 42 609 13 564 q 120 687 72 653 q 95 750 104 717 q 86 821 86 783 q 144 970 86 918 q 287 1023 202 1023 m 220 426 l 389 241 q 405 266 399 251 q 412 299 412 280 q 401 352 412 327 q 355 414 390 376 l 186 598 q 169 574 176 588 q 163 540 163 559 q 174 488 163 513 q 220 426 184 463 z "},"©":{"ha":927,"x_min":25,"x_max":902,"o":"m 25 385 l 25 625 q 80 869 25 770 q 230 1017 135 967 q 444 1067 324 1067 l 482 1067 q 697 1017 602 1067 q 847 869 792 967 q 902 625 902 770 l 902 385 q 847 141 902 240 q 697 -7 792 43 q 482 -57 602 -57 l 444 -57 q 230 -7 324 -57 q 80 141 135 43 q 25 385 25 240 m 183 372 q 247 157 183 239 q 444 76 311 76 l 482 76 q 680 157 616 76 q 744 372 744 239 l 744 638 q 680 854 744 773 q 482 934 616 934 l 444 934 q 247 853 311 934 q 183 638 183 771 l 183 372 m 249 530 q 274 699 249 625 q 350 816 299 773 q 476 859 400 859 q 584 829 543 859 q 645 753 625 799 q 664 657 664 707 q 665 620 664 638 q 670 587 667 602 l 670 574 l 521 574 q 515 606 516 588 q 514 644 514 624 l 514 674 q 470 739 514 739 q 426 674 426 739 l 426 336 q 470 271 426 271 q 514 336 514 271 l 514 372 q 515 412 514 394 q 521 442 516 429 l 670 442 l 670 429 q 665 399 667 417 q 664 360 664 381 q 645 261 664 309 q 584 182 625 213 q 476 152 543 152 q 350 194 400 152 q 274 311 299 237 q 249 480 249 385 l 249 530 z "},"®":{"ha":927,"x_min":25,"x_max":902,"o":"m 25 385 l 25 625 q 80 869 25 770 q 230 1017 135 967 q 444 1067 324 1067 l 482 1067 q 697 1017 602 1067 q 847 869 792 967 q 902 625 902 770 l 902 385 q 847 141 902 240 q 697 -7 792 43 q 482 -57 602 -57 l 444 -57 q 230 -7 324 -57 q 80 141 135 43 q 25 385 25 240 m 183 372 q 247 157 183 239 q 444 76 311 76 l 482 76 q 680 157 616 76 q 744 372 744 239 l 744 638 q 680 854 744 773 q 482 934 616 934 l 444 934 q 247 853 311 934 q 183 638 183 771 l 183 372 m 295 846 l 465 846 q 621 790 562 846 q 681 634 681 734 q 656 521 681 562 q 605 451 631 480 l 660 177 l 660 164 l 504 164 l 465 412 l 446 412 l 453 164 l 295 164 l 295 846 m 453 726 l 453 519 l 475 519 q 529 593 529 519 l 529 652 q 475 726 529 726 l 453 726 z "},"™":{"ha":670,"x_min":10,"x_max":645,"o":"m 10 1010 l 249 1010 l 249 914 l 187 914 l 187 533 l 72 533 l 72 914 l 10 914 l 10 1010 m 274 1010 l 405 1010 l 457 754 l 463 754 l 514 1010 l 645 1010 l 645 533 l 535 533 l 540 754 l 535 754 l 490 533 l 431 533 l 385 754 l 379 754 l 385 533 l 274 533 l 274 1010 z "},"°":{"ha":341,"x_min":19,"x_max":322,"o":"m 170 619 q 61 672 102 619 q 19 821 19 726 q 61 969 19 915 q 170 1023 102 1023 q 280 969 239 1023 q 322 821 322 915 q 280 672 322 726 q 170 619 239 619 m 170 726 q 196 770 196 726 l 196 871 q 170 915 196 915 q 145 871 145 915 l 145 770 q 170 726 145 726 z "},"′":{"ha":215,"x_min":51,"x_max":170,"o":"m 51 1010 l 170 1010 l 170 846 l 101 606 l 51 606 l 51 1010 z "},"″":{"ha":385,"x_min":51,"x_max":341,"o":"m 51 1010 l 170 1010 l 170 846 l 101 606 l 51 606 l 51 1010 m 221 1010 l 341 1010 l 341 846 l 271 606 l 221 606 l 221 1010 z "},"|":{"ha":208,"x_min":25,"x_max":183,"o":"m 25 1010 l 183 1010 l 183 -189 l 25 -189 l 25 1010 z "},"¦":{"ha":208,"x_min":25,"x_max":183,"o":"m 25 556 l 25 1010 l 183 1010 l 183 556 l 25 556 m 25 -189 l 25 278 l 183 278 l 183 -189 l 25 -189 z "},"†":{"ha":625,"x_min":19,"x_max":606,"o":"m 19 682 l 234 682 l 234 1010 l 391 1010 l 391 682 l 606 682 l 606 543 l 391 543 l 391 -189 l 234 -189 l 234 543 l 19 543 l 19 682 z "},"‡":{"ha":625,"x_min":19,"x_max":606,"o":"m 19 316 l 234 316 l 234 543 l 19 543 l 19 682 l 234 682 l 234 1010 l 391 1010 l 391 682 l 606 682 l 606 543 l 391 543 l 391 316 l 606 316 l 606 177 l 391 177 l 391 -189 l 234 -189 l 234 177 l 19 177 l 19 316 z "},"̈":{"ha":0,"x_min":38,"x_max":379,"o":"m 38 1010 l 189 1010 l 189 865 l 38 865 l 38 1010 m 227 1010 l 379 1010 l 379 865 l 227 865 l 227 1010 z "},"̇":{"ha":0,"x_min":38,"x_max":221,"o":"m 38 1010 l 221 1010 l 221 865 l 38 865 l 38 1010 z "},"̀":{"ha":0,"x_min":42,"x_max":225,"o":"m 225 865 l 111 865 l 42 997 l 42 1010 l 199 1010 l 225 878 l 225 865 z "},"́":{"ha":0,"x_min":85,"x_max":268,"o":"m 85 865 l 85 878 l 110 1010 l 268 1010 l 268 997 l 198 865 l 85 865 z "},"̋":{"ha":0,"x_min":82,"x_max":407,"o":"m 82 865 l 82 878 l 88 1010 l 230 1010 l 230 997 l 183 865 l 82 865 m 240 865 l 240 878 l 259 1010 l 407 1010 l 407 997 l 347 865 l 240 865 z "},"̂":{"ha":0,"x_min":3,"x_max":306,"o":"m 122 865 l 3 865 l 3 878 l 72 1010 l 236 1010 l 306 878 l 306 865 l 186 865 l 160 934 l 148 934 l 122 865 z "},"̌":{"ha":0,"x_min":3,"x_max":306,"o":"m 72 865 l 3 997 l 3 1010 l 122 1010 l 148 941 l 160 941 l 186 1010 l 306 1010 l 306 997 l 236 865 l 72 865 z "},"̆":{"ha":0,"x_min":25,"x_max":323,"o":"m 120 1010 q 174 953 120 953 q 229 1010 229 953 l 323 1010 q 285 895 323 937 q 174 852 246 852 q 64 895 102 852 q 25 1010 25 937 l 120 1010 z "},"̊":{"ha":0,"x_min":38,"x_max":253,"o":"m 145 840 q 69 869 100 840 q 38 941 38 898 q 69 1013 38 985 q 145 1042 100 1042 q 222 1013 191 1042 q 253 941 253 985 q 222 869 253 898 q 145 840 191 840 m 145 909 q 168 918 159 909 q 177 941 177 927 q 168 963 177 955 q 145 972 159 972 q 123 963 133 972 q 114 941 114 955 q 123 918 114 927 q 145 909 133 909 z "},"̃":{"ha":0,"x_min":38,"x_max":336,"o":"m 250 859 q 200 872 220 859 q 166 901 181 886 q 134 915 152 915 q 106 865 106 915 l 38 865 l 38 905 q 58 984 38 952 q 124 1016 78 1016 q 175 1002 155 1016 q 209 973 194 987 q 240 960 223 960 q 268 1010 268 960 l 336 1010 l 336 970 q 316 891 336 923 q 250 859 295 859 z "},"̄":{"ha":0,"x_min":25,"x_max":335,"o":"m 25 972 l 335 972 l 335 871 l 25 871 l 25 972 z "},"̒":{"ha":0,"x_min":38,"x_max":221,"o":"m 221 840 l 38 840 l 38 953 l 133 1061 l 189 1061 l 189 1048 l 133 960 l 221 960 l 221 840 z "},"̦":{"ha":0,"x_min":38,"x_max":221,"o":"m 38 -44 l 221 -44 l 221 -158 l 126 -265 l 69 -265 l 69 -253 l 126 -164 l 38 -164 l 38 -44 z "},"̧":{"ha":0,"x_min":38,"x_max":290,"o":"m 98 0 l 164 0 l 164 -63 l 177 -63 q 196 -45 183 -53 q 230 -37 210 -37 q 273 -52 255 -37 q 290 -101 290 -68 q 254 -177 290 -146 q 162 -225 217 -208 q 51 -246 106 -241 l 38 -246 l 38 -158 l 116 -158 q 176 -125 176 -158 q 146 -104 176 -104 l 98 -104 l 98 0 z "},"̨":{"ha":0,"x_min":56,"x_max":245,"o":"m 217 0 q 174 -66 188 -40 q 160 -114 160 -91 q 175 -148 160 -138 q 217 -158 189 -158 l 245 -158 l 245 -234 l 202 -234 q 98 -210 140 -234 q 56 -136 56 -187 q 86 -60 56 -92 q 154 0 117 -28 l 217 0 z "},"¨":{"ha":391,"x_min":25,"x_max":366,"o":"m 25 1010 l 177 1010 l 177 865 l 25 865 l 25 1010 m 215 1010 l 366 1010 l 366 865 l 215 865 l 215 1010 z "},"˙":{"ha":234,"x_min":25,"x_max":208,"o":"m 25 1010 l 208 1010 l 208 865 l 25 865 l 25 1010 z "},"`":{"ha":234,"x_min":25,"x_max":208,"o":"m 208 865 l 95 865 l 25 997 l 25 1010 l 183 1010 l 208 878 l 208 865 z "},"´":{"ha":234,"x_min":25,"x_max":208,"o":"m 25 865 l 25 878 l 51 1010 l 208 1010 l 208 997 l 139 865 l 25 865 z "},"˝":{"ha":375,"x_min":25,"x_max":350,"o":"m 25 865 l 25 878 l 32 1010 l 173 1010 l 173 997 l 126 865 l 25 865 m 183 865 l 183 878 l 202 1010 l 350 1010 l 350 997 l 290 865 l 183 865 z "},"ˆ":{"ha":354,"x_min":25,"x_max":328,"o":"m 145 865 l 25 865 l 25 878 l 95 1010 l 259 1010 l 328 878 l 328 865 l 208 865 l 183 934 l 170 934 l 145 865 z "},"ˇ":{"ha":354,"x_min":25,"x_max":328,"o":"m 95 865 l 25 997 l 25 1010 l 145 1010 l 170 941 l 183 941 l 208 1010 l 328 1010 l 328 997 l 259 865 l 95 865 z "},"˘":{"ha":328,"x_min":35,"x_max":333,"o":"m 130 1010 q 184 953 130 953 q 239 1010 239 953 l 333 1010 q 295 895 333 937 q 184 852 256 852 q 74 895 112 852 q 35 1010 35 937 l 130 1010 z "},"˚":{"ha":265,"x_min":25,"x_max":240,"o":"m 133 840 q 56 869 87 840 q 25 941 25 898 q 56 1013 25 985 q 133 1042 87 1042 q 209 1013 178 1042 q 240 941 240 985 q 209 869 240 898 q 133 840 178 840 m 133 909 q 155 918 146 909 q 164 941 164 927 q 155 963 164 955 q 133 972 146 972 q 110 963 120 972 q 101 941 101 955 q 110 918 101 927 q 133 909 120 909 z "},"˜":{"ha":386,"x_min":13,"x_max":311,"o":"m 225 859 q 175 872 194 859 q 141 901 155 886 q 109 915 126 915 q 81 865 81 915 l 13 865 l 13 905 q 33 984 13 952 q 98 1016 53 1016 q 150 1002 130 1016 q 184 973 169 987 q 215 960 198 960 q 242 1010 242 960 l 311 1010 l 311 970 q 290 891 311 923 q 225 859 270 859 z "},"¯":{"ha":360,"x_min":25,"x_max":335,"o":"m 25 972 l 335 972 l 335 871 l 25 871 l 25 972 z "},"¸":{"ha":303,"x_min":25,"x_max":278,"o":"m 86 0 l 152 0 l 152 -63 l 164 -63 q 184 -45 170 -53 q 217 -37 197 -37 q 260 -52 242 -37 q 278 -101 278 -68 q 241 -177 278 -146 q 149 -225 205 -208 q 38 -246 93 -241 l 25 -246 l 25 -158 l 104 -158 q 163 -125 163 -158 q 134 -104 163 -104 l 86 -104 l 86 0 z "},"˛":{"ha":240,"x_min":25,"x_max":215,"o":"m 187 0 q 144 -66 158 -40 q 130 -114 130 -91 q 145 -148 130 -138 q 187 -158 159 -158 l 215 -158 l 215 -234 l 172 -234 q 68 -210 110 -234 q 25 -136 25 -187 q 56 -60 25 -92 q 124 0 87 -28 l 187 0 z "}}}
